<svg width="70" height="54" viewBox="0 0 70 54" fill="none" xmlns="http://www.w3.org/2000/svg">
<g clip-path="url(#clip0_0_3)">
<path d="M59.4207 10.3499C59.0124 9.95079 58.7837 9.41026 58.786 8.84692V1.93861C58.786 0.868948 57.8993 0.00227356 56.805 0.00227356H50.3627C49.2683 0.00227356 48.3817 0.868948 48.3817 1.93861V8.2334C48.3817 9.30306 49.2683 10.1697 50.3627 10.1697H57.4257C58.002 10.1697 58.555 10.3932 58.9633 10.7901C59.3717 11.1892 59.6004 11.7298 59.598 12.2931V52.1077C59.598 53.1773 60.4847 54.044 61.579 54.044H68.019C69.1134 54.044 70 53.1773 70 52.1077V12.918C70 11.8483 69.1134 10.9817 68.019 10.9817H60.9584C60.3797 10.9794 59.8267 10.7513 59.4207 10.3499Z" fill="#44EB99"/>
<path d="M11.0367 32.7261C11.445 32.3293 11.9957 32.1058 12.572 32.1081H30.051C31.1407 32.1081 32.025 31.2437 32.025 30.1786V23.2566C32.025 22.6978 32.2537 22.1618 32.6573 21.7672C33.0657 21.3704 33.6163 21.1492 34.1927 21.1492H41.2673C42.357 21.1492 43.2413 20.2848 43.2413 19.2197V12.8998C43.2413 11.8347 42.357 10.9703 41.2673 10.9703H34.2067C33.0073 10.968 32.0343 10.0192 32.032 8.84465V1.92949C32.032 0.864395 31.1477 0 30.058 0H2.00667C0.898333 0 0 0.878079 0 1.96142V8.21061C0 9.29396 0.898333 10.172 2.00667 10.172H30.6717C31.8757 10.172 32.851 11.1254 32.851 12.3022V19.8263C32.851 20.3874 32.6223 20.9279 32.2163 21.3248C31.8103 21.7216 31.2573 21.9429 30.6833 21.9429H13.1973C12.1077 21.9429 11.2233 22.8073 11.2233 23.8724V30.7944C11.2233 31.3554 10.997 31.8937 10.591 32.2905C10.185 32.6874 9.63433 32.9086 9.06033 32.9086H1.974C0.884333 32.9086 0 33.773 0 34.8381V41.1489C0 42.214 0.884333 43.0783 1.974 43.0783H9.06267C9.63667 43.0783 10.1873 43.2996 10.5933 43.6964C10.9993 44.0933 11.2257 44.6315 11.2257 45.1926V52.1191C11.2257 53.1842 12.11 54.0486 13.1997 54.0486H41.251C42.3593 54.0486 43.2577 53.1706 43.2577 52.0872V45.8426C43.2577 44.7592 42.3593 43.8812 41.251 43.8812H12.579C12.0027 43.8812 11.452 43.6599 11.0437 43.2631C10.6377 42.8685 10.4113 42.3326 10.4113 41.7738V34.2337C10.4067 33.6658 10.6307 33.1253 11.0367 32.7261Z" fill="#44EB99"/>
<path d="M66.7217 18.5719C66.675 18.6176 66.612 18.6426 66.5443 18.6449H65.5597C65.4943 18.6426 65.4313 18.6176 65.3823 18.5719C65.3357 18.5263 65.31 18.4647 65.3077 18.3986V13.6912C65.3077 13.5498 65.1887 13.4335 65.044 13.4335H64.253C64.1083 13.4335 63.9893 13.5498 63.9893 13.6912V18.3986C63.987 18.4625 63.9613 18.524 63.9147 18.5719C63.868 18.6176 63.805 18.6426 63.7373 18.6449H62.7527C62.6873 18.6426 62.6243 18.6176 62.5753 18.5719C62.5287 18.524 62.503 18.4625 62.5007 18.3963V13.6912C62.5007 13.5498 62.3817 13.4335 62.237 13.4335H61.446C61.3013 13.4335 61.1823 13.5498 61.1823 13.6912V18.3119C61.1823 18.4533 61.3013 18.5697 61.446 18.5697H62.293C62.3583 18.5719 62.4213 18.597 62.4703 18.6426C62.517 18.6905 62.5427 18.7521 62.545 18.8183V19.6918C62.545 19.8332 62.664 19.9495 62.8087 19.9495H63.5997C63.7443 19.9495 63.8633 19.8332 63.8633 19.6918V18.8046C63.8633 18.7384 63.8913 18.6769 63.938 18.629C63.9893 18.5742 64.064 18.5446 64.141 18.5469H65.1257C65.1933 18.5469 65.2563 18.5742 65.3053 18.6198C65.352 18.6654 65.3777 18.727 65.38 18.7932V19.6667C65.38 19.8081 65.499 19.9244 65.6437 19.9244H66.4347C66.5793 19.9244 66.6983 19.8081 66.6983 19.6667V18.8046C66.6983 18.7384 66.7263 18.6769 66.773 18.629C66.8197 18.5833 66.8827 18.5583 66.9503 18.556H67.844C67.9887 18.556 68.1077 18.4397 68.1077 18.2983V13.6912C68.1077 13.5498 67.9887 13.4335 67.844 13.4335H67.053C66.9083 13.4335 66.7893 13.5498 66.7893 13.6912V18.3986C66.7893 18.4625 66.766 18.524 66.7217 18.5719Z" fill="#161D27"/>
<path d="M65.282 30.7555V29.866C65.282 29.736 65.1747 29.6311 65.0417 29.6311H64.2157C64.0827 29.6311 63.9754 29.736 63.9754 29.866V30.7555C63.9754 30.8194 63.9497 30.8787 63.903 30.922L63.8844 30.9403C63.84 30.9859 63.777 31.011 63.714 31.011H62.804C62.671 31.011 62.5637 31.1159 62.5637 31.2459V34.5985C62.5637 34.7285 62.671 34.8335 62.804 34.8335H63.714C63.7794 34.8335 63.84 34.8585 63.8844 34.9042L63.903 34.9224C63.9497 34.9657 63.9754 35.0273 63.9754 35.0889V35.9784C63.9754 36.1084 64.0827 36.2133 64.2157 36.2133H65.0417C65.1747 36.2133 65.282 36.1084 65.282 35.9784V35.0889C65.282 35.025 65.3077 34.9657 65.3544 34.9224L65.373 34.9042C65.4174 34.8585 65.4804 34.8335 65.5434 34.8335H66.4534C66.5864 34.8335 66.6937 34.7285 66.6937 34.5985V31.2459C66.6937 31.1159 66.5864 31.011 66.4534 31.011H65.5434C65.478 31.011 65.4174 30.9859 65.373 30.9403L65.3544 30.922C65.3054 30.8787 65.2797 30.8171 65.282 30.7555ZM65.3124 34.854L65.2937 34.8722C65.2494 34.9178 65.1864 34.9429 65.1234 34.9429H64.1294C64.064 34.9429 64.0034 34.9178 63.959 34.8722L63.9404 34.854C63.8937 34.8106 63.868 34.7491 63.868 34.6875V31.1638C63.868 31.0999 63.8937 31.0406 63.9404 30.9973L63.959 30.979C64.0034 30.9334 64.0664 30.9083 64.1294 30.9083H65.1234C65.1887 30.9083 65.2494 30.9334 65.2937 30.979L65.3124 30.9973C65.359 31.0406 65.3847 31.1022 65.3847 31.1638V34.6875C65.3847 34.7491 65.359 34.8106 65.3124 34.854Z" fill="#161D27"/>
<path d="M65.2656 24.0047L65.2423 24.0275C65.198 24.0708 65.1373 24.0936 65.0766 24.0936H64.1456C64.015 24.0936 63.91 23.991 63.91 23.8632V21.765C63.91 21.6373 63.805 21.5346 63.6743 21.5346H62.832C62.7013 21.5346 62.5963 21.6373 62.5963 21.765V27.7975C62.5963 27.9252 62.7013 28.0279 62.832 28.0279H63.6743C63.805 28.0279 63.91 27.9252 63.91 27.7975V25.5989C63.91 25.4712 64.015 25.3685 64.1456 25.3685H65.0673C65.1303 25.3685 65.1886 25.3936 65.233 25.4347L65.2563 25.4575C65.3006 25.5008 65.324 25.5601 65.324 25.6194V27.7975C65.324 27.9252 65.429 28.0279 65.5596 28.0279H66.402C66.5326 28.0279 66.6376 27.9252 66.6376 27.7975V25.6992C66.6376 25.5715 66.5326 25.4689 66.402 25.4689H65.4803C65.4173 25.4689 65.359 25.4438 65.3146 25.4027L65.2913 25.3799C65.247 25.3366 65.2236 25.2773 65.2236 25.218V24.2418C65.2236 24.1803 65.2493 24.1233 65.2913 24.0799L65.3146 24.0571C65.359 24.0138 65.4196 23.991 65.4803 23.991H66.402C66.5326 23.991 66.6376 23.8883 66.6376 23.7606V21.7627C66.6376 21.635 66.5326 21.5323 66.402 21.5323H65.5596C65.429 21.5323 65.324 21.635 65.324 21.7627V23.8404C65.3263 23.902 65.3053 23.959 65.2656 24.0047Z" fill="#161D27"/>
<path d="M65.282 38.9411V38.0721C65.282 37.9307 65.163 37.8144 65.0183 37.8144H64.2273C64.0826 37.8144 63.9636 37.9307 63.9636 38.0721V38.9411C63.9636 39.0072 63.9356 39.0688 63.889 39.1167C63.84 39.1623 63.777 39.1874 63.7093 39.1897H62.825C62.6803 39.1897 62.5613 39.306 62.5613 39.4474V44.1616C62.5613 44.303 62.6803 44.4194 62.825 44.4194H63.616C63.7606 44.4194 63.8796 44.303 63.8796 44.1616V39.3607C63.8796 39.2946 63.9076 39.233 63.9543 39.1851C64.0033 39.1395 64.0663 39.1144 64.134 39.1121H65.1163C65.184 39.1121 65.247 39.1395 65.296 39.1851C65.3426 39.233 65.3683 39.2946 65.3706 39.3607V44.1639C65.3706 44.3053 65.4896 44.4216 65.6343 44.4216H66.4253C66.57 44.4216 66.689 44.3053 66.689 44.1639V39.4497C66.689 39.3083 66.57 39.192 66.4253 39.192H65.534C65.4663 39.192 65.4033 39.1646 65.3543 39.119C65.3053 39.0711 65.2796 39.0072 65.282 38.9411Z" fill="#161D27"/>
<path d="M65.3683 47.3205L65.3543 47.3068C65.3077 47.2612 65.282 47.1996 65.282 47.1358V46.2531C65.282 46.1208 65.1723 46.0136 65.037 46.0136H64.2227C64.0873 46.0136 63.9777 46.1208 63.9777 46.2531V47.1358C63.9777 47.1996 63.952 47.2612 63.9053 47.3068L63.8913 47.3205C63.8447 47.3661 63.7817 47.3912 63.7163 47.3912H62.811C62.6757 47.3912 62.566 47.4984 62.566 47.6307V52.3609C62.566 52.4932 62.6757 52.6004 62.811 52.6004H63.6137C63.749 52.6004 63.8587 52.4932 63.8587 52.3609V49.9456V48.714L63.8913 48.7459C63.938 48.7916 63.9637 48.8531 63.9637 48.917V49.7996C63.9637 49.9319 64.0733 50.0391 64.2087 50.0391H65.023C65.1583 50.0391 65.268 49.9319 65.268 49.7996V48.9193C65.268 48.8554 65.2937 48.7938 65.3403 48.7482L65.373 48.7163V52.3495C65.373 52.4818 65.4827 52.589 65.618 52.589H66.4323C66.5677 52.589 66.6774 52.4818 66.6774 52.3495V47.633C66.6774 47.5007 66.5677 47.3935 66.4323 47.3935H65.541C65.4757 47.3935 65.4127 47.3661 65.3683 47.3205ZM65.3123 48.6866C65.2657 48.7323 65.2027 48.7574 65.1373 48.7574H64.1433C64.078 48.7574 64.015 48.7323 63.9683 48.6866L63.952 48.6707C63.9053 48.6251 63.8797 48.5635 63.8797 48.4996V47.5349C63.8797 47.471 63.9053 47.4094 63.952 47.3638L63.9683 47.3479C64.015 47.3023 64.078 47.2772 64.1433 47.2772H65.1327C65.198 47.2772 65.261 47.3023 65.3077 47.3479L65.324 47.3638C65.3707 47.4094 65.3963 47.471 65.3963 47.5349V48.5042C65.394 48.5749 65.366 48.641 65.3123 48.6866Z" fill="#161D27"/>
</g>
<defs>
<clipPath id="clip0_0_3">
<rect width="70" height="70" fill="white"/>
</clipPath>
</defs>
</svg>
