/* XPM */
static char *goblin_idle_4[] = {
/* columns rows colors chars-per-pixel */
"48 48 9 1 ",
"  c #040406",
". c #060608",
"X c #34292E",
"o c #683E2C",
"O c #3A5124",
"+ c #7E4C35",
"@ c #4B692F",
"# c #4C3941",
"$ c #514047",
/* pixels */
"$$$$$$$$$$$$$$$$$$$$$$$$$$$$$$$$$$$$$$$$$$$$$$$$",
"$$$$$$$$$$$$$$$$$$$$$$$$$$$$$$$$$$$$$$$$$$$$$$$$",
"$$$$$$$$$$$$$$$$$$$$$$$$$$$$$$$$$$$$$$$$$$$$$$$$",
"$$$$$$$$$$$$$$$$$$$$$$$$$$$$$$$$$$$$$$$$$$$$$$$$",
"$$$$$$$$$$$$$$$$$$$$$$$$$$$$$$$$$$$$$$$$$$$$$$$$",
"$$$$$$$$$$$$$$$$$$$$$$$$$$$$$$$$$$$$$$$$$$$$$$$$",
"$$$$$$$$$$$$$$$$$$...............$$$###$$$$$$$$$",
"$$$$$$$$$$$$$$$$$$...............$$$###$$$$$$$$$",
"$$$$$$$$$$$$$$$$$$...............$$$###$$$$$$$$$",
"$$$$$$$$$$$$$$$...ooo+++++++++ooo...$$$$$$$$$$$$",
"$$$$$$$$$$$$$$$...ooo+++++++++ooo...$$$$$$$$$$$$",
"$$$$$$$$$$$$$$$...ooo+++++++++ooo...$$$$$$$$$$$$",
"$$$$$$.........ooo+++++++++++++++ooo.........$$$",
"$$$$$$.........ooo+++++++++++++++ooo.........$$$",
"$$$$$$.........ooo+++++++++++++++ooo.........$$$",
"$$$$$$...OOO@@@@@@++++++++++++++++++@@@OOO...$$$",
"$$$$$$...OOO@@@@@@++++++++++++++++++@@@OOO...$$$",
"$$$$$$...OOO@@@@@@++++++++++++++++++@@@OOO...$$$",
"$$$$$$$$$...OOO@@@+++OOOOOOOOOOOOOOOOOO...$$$$$$",
"$$$$$$$$$...OOO@@@+++OOOOOOOOOOOOOOOOOO...$$$$$$",
"$$$$$$$$$...OOO@@@+++OOOOOOOOOOOOOOOOOO...$$$$$$",
"$$$$$$$$$...ooo@@@oooOOOOOOOOOOOOOOO...$$$$$$$$$",
"$$$$$$$$$...ooo@@@oooOOOOOOOOOOOOOOO...$$$$$$$$$",
"$$$$$$$$$...ooo@@@oooOOOOOOOOOOOOOOO...$$$$$$$$$",
"$$$$$$$$$...oooOOOOOO@@@...@@@@@@......$$$$$$$$$",
"$$$$$$$$$...oooOOOOOO@@@...@@@@@@......$$$$$$$$$",
"$$$$$$$$$...oooOOOOOO@@@...@@@@@@......$$$$$$$$$",
"$$$$$$$$$...ooooooOOO@@@@@@@@@@@@@@@...$$$$$$$$$",
"$$$$$$$$$...ooooooOOO@@@@@@@@@@@@@@@...$$$$$$$$$",
"$$$$$$$$$...ooooooOOO@@@@@@@@@@@@@@@...$$$$$$$$$",
"$$$$$$$$$$$$......OOO@@@@@@@@@@@@@@@...$$$$$$$$$",
"$$$$$$$$$$$$......OOO@@@@@@@@@@@@@@@...$$$$$$$$$",
"$$$$$$$$$$$$......OOO@@@@@@@@@@@@@@@...$$$$$$$$$",
"$$$$$$$$$$$$###...OOOOOO.........OOO...$$$$$$$$$",
"$$$$$$$$$$$$###...OOOOOO.........OOO...$$$$$$$$$",
"$$$$$$$$$$$$###...OOOOOO.........OOO...$$$$$$$$$",
"$$$$$$$$$XXXXXX   OOO...XXX...OOO...XXXXXX$$$$$$",
"$$$$$$$$$XXXXXX   OOO...XXX...OOO...XXXXXX$$$$$$",
"$$$$$$$$$XXXXXX   OOO...XXX...OOO...XXXXXX$$$$$$",
"$$$$$$XXXXXXXXX......XXXXXX......XXXXXXXXXXXX$$$",
"$$$$$$XXXXXXXXX......XXXXXX......XXXXXXXXXXXX$$$",
"$$$$$$XXXXXXXXX......XXXXXX......XXXXXXXXXXXX$$$",
"$$$$$$XXXXXXXXXXXXXXXXXXXXXXXXXXXXXXXXXXXXXXX$$$",
"$$$$$$XXXXXXXXXXXXXXXXXXXXXXXXXXXXXXXXXXXXXXX$$$",
"$$$$$$XXXXXXXXXXXXXXXXXXXXXXXXXXXXXXXXXXXXXXX$$$",
"$$$$$$$$$XXXXXXXXXXXXXXXXXXXXXXXXXXXXXXXXX$$$$$$",
"$$$$$$$$$XXXXXXXXXXXXXXXXXXXXXXXXXXXXXXXXX$$$$$$",
"$$$$$$$$$XXXXXXXXXXXXXXXXXXXXXXXXXXXXXXXXX$$$$$$"
};
