/* XPM */
static char *goblin_idle_6[] = {
/* columns rows colors chars-per-pixel */
"48 48 8 1 ",
"  c #060608",
". c #34292E",
"X c #683E2C",
"o c #3A5124",
"O c #7E4C35",
"+ c #4B692F",
"@ c #4C3941",
"# c #514047",
/* pixels */
"################################################",
"################################################",
"################################################",
"##################               ###############",
"##################               ###############",
"##################               ###############",
"###############   XXXOOOOOOOOOXXX   @@@#########",
"###############   XXXOOOOOOOOOXXX   @@@#########",
"###############   XXXOOOOOOOOOXXX   @@@#########",
"############   XXXOOOOOOOOOOOOOOOXXX   #########",
"############   XXXOOOOOOOOOOOOOOOXXX   #########",
"############   XXXOOOOOOOOOOOOOOOXXX   #########",
"#########   ++++++OOOOOOOOOOOOOOOOOO+++   ######",
"#########   ++++++OOOOOOOOOOOOOOOOOO+++   ######",
"#########   ++++++OOOOOOOOOOOOOOOOOO+++   ######",
"######   oooooo+++OOOooooooooooooooooooooo   ###",
"######   oooooo+++OOOooooooooooooooooooooo   ###",
"######   oooooo+++OOOooooooooooooooooooooo   ###",
"######      XXX+++XXXooooooooooooooo         ###",
"######      XXX+++XXXooooooooooooooo         ###",
"######      XXX+++XXXooooooooooooooo         ###",
"#########   XXXooooooooooooooooooooo   #########",
"#########   XXXooooooooooooooooooooo   #########",
"#########   XXXooooooooooooooooooooo   #########",
"#########   XXXXXXooo+++   ++++++      #########",
"#########   XXXXXXooo+++   ++++++      #########",
"#########   XXXXXXooo+++   ++++++      #########",
"############   XXXooo+++++++++++++++   #########",
"############   XXXooo+++++++++++++++   #########",
"############   XXXooo+++++++++++++++   #########",
"###############   ooo+++++++++++++++   #########",
"###############   ooo+++++++++++++++   #########",
"###############   ooo+++++++++++++++   #########",
"############@@@   oooooo         ooo   #########",
"############@@@   oooooo         ooo   #########",
"############@@@   oooooo         ooo   #########",
"#########......   ooo   ...   ooo   ......######",
"#########......   ooo   ...   ooo   ......######",
"#########......   ooo   ...   ooo   ......######",
"######.........      ......      ............###",
"######.........      ......      ............###",
"######.........      ......      ............###",
"######.......................................###",
"######.......................................###",
"######.......................................###",
"#########.................................######",
"#########.................................######",
"#########.................................######"
};
