/* XPM */
static char *door_closed[] = {
/* columns rows colors chars-per-pixel */
"48 48 55 1 ",
"  c None",
". c #060608",
"X c #311C1B",
"o c #3A211F",
"O c #313132",
"+ c #412320",
"@ c #4D2A26",
"# c #4F2B27",
"$ c #4F2C28",
"% c #532E2B",
"& c #59302C",
"* c #5C322D",
"= c #4A3D3D",
"- c #633631",
"; c #653732",
": c #6D3B36",
"> c #703D37",
", c #7B433D",
"< c #454546",
"1 c #4E4049",
"2 c #594C57",
"3 c #5E5251",
"4 c #5A5A5B",
"5 c gray36",
"6 c #7D5854",
"7 c #434F65",
"8 c #585160",
"9 c #5E5463",
"0 c #4E5B74",
"q c #645866",
"w c #5C677D",
"e c #6E6E6F",
"r c #844841",
"t c #9A544C",
"y c #85706D",
"u c #8D7472",
"i c #596782",
"p c #66728A",
"a c #67738B",
"s c #6D798F",
"d c #6F7F9F",
"f c #758095",
"g c #838384",
"h c #858585",
"j c gray55",
"k c #949494",
"l c #9D9D9D",
"z c #8895AF",
"x c #8B98B2",
"c c #97A3BA",
"v c gray68",
"b c #AEAEAE",
"n c #A6B0C4",
"m c gray84",
"M c white",
/* pixels */
"                    zzzzzzzz                    ",
"                    zzzzzzzz                    ",
"                    zzzzzzzz                    ",
"           zzzzzzz7pzzzzzzzzp7zzzzzzz           ",
"           zzzzzzz7sccccccccs7zzzzzzz           ",
"           zzzzzzz7fnnnnnnnnf7zzzzzzz           ",
"7pzzzzzzz7pzzzzzzz7iddddddddi7zzzzzzzp7zzzzzzzp7",
"7pzzzzzzz7sccccccc7iddddddddi7cccccccs7zzzzzzzp7",
"7pzzzzzzz7fnnnnnnn7iddddddddi7nnnnnnns7zzzzzzzp7",
"7pzzzzzzz7iddddddd7iddddddddi7dddddddi7zzzzzzzp7",
"7sccccccc7iddddddd7iddddddddi7dddddddi7cccccccs7",
"7fnnnnnnn7iddddddd7iddddddddi7dddddddi7nnnnnnnf7",
"7iddddddd7iddddddd&@+&&&&&&+@&dddddddi7dddddddi7",
"7iddddddd12qq99qqq&@+&&&&&&+@&qqq99qq21dddddddi7",
"7iddddddd&&&&@+&&&&@+&&&&&&+@&&&&+@&&&&dddddddi7",
"7iddddddd&&&&@+::::;&::::::&;::::+@&&&&dddddddi7",
"70iiiiiii;;;;&@::::;&::::::&;::::@&;;;;iiiiiii07",
"777777777::::;&::::;&::::::&;::::&;::::777777777",
"7snnnnnnnjjjvy&::::;&.......o::::&;::::nnnnnnns7",
"7pxxxxxxxjklvy&::::$XO<55ehh3o:::&;::::xxxxxxxp7",
"7idddddddjlvvy&::::o.5hvvmMMh.:::&;::::dddddddi7",
"7iddddddd::::;&:::.O5v5....5vM.o:&;::::dddddddi7",
"7iddddddd::::;&:::.O5v5....5vM.o:&;::::dddddddi7",
"7iddddddd::::;&:::.O5v5....5vM.o:&;::::dddddddi7",
"7iddddddd::::;&:o.5hvvvvvvvvvvMh.&;:vu:dddddddi7",
"70iiiiiii::::;&:o.5hvvvvvvvvvvMh.&;:vu:iiiiiii07",
"777777777::::;&:o.5hvvvvvvvvvvMh.&;:vu:777777777",
"7fnnnnnnn::::;&:o.5hvvvv...vvvMh.&;:vu:nnnnnnnf7",
"7pxxxxxxx::::;&:o.5hvvvv...vvvme.&;:vu:xxxxxxxp7",
"7iddddddd::::;&:o.5hvvvv...vvvv5.&;:vu:dddddddi7",
"7iddddddd::::;&:o.5hvvvv...vvvv5.&;:vu:dddddddi7",
"7iddddddd::::;&:o.5hvvvv555vvvv5.&;:u6:dddddddi7",
"7iddddddd::::;&:o.5hvvvvvvvvvvv5.&;::::dddddddi7",
"7iddddddd::::;&:o.5hvvvvvvvvvvv5.&;::::dddddddi7",
"70iiiiiii::::;&:%oO<55555555555=o&;::::iiiiiii07",
"777777777::::;&:::.............o:&;::::777777777",
"7fnnnnnnnjjjvy&::::;&::::::&;::::&;::::nnnnnnnf7",
"7pxxxxxxxjklvy&::::;&::::::&;::::&;::::xxxxxxxp7",
"7idddddddjlvvy&::::;&::::::&;::::&;::::dddddddi7",
"7iddddddd::::;&::::;&::::::&;::::&;::::dddddddi7",
"7iddddddd::::;&::::;&::::::&;::::&;::::dddddddi7",
"7iddddddd::::;&::::;&::::::&;::::&;::::dddddddi7",
"777777777::::;&::::;&::::::&;::::&;::::777777777",
"7wfffffff::::;&::::;&::::::&;::::&;::::fffffffw7",
"7fnnnnnnn::::;&::::;&::::::&;::::&;::::nnnnnnnf7",
"7iddddddd::::;&::::;&::::::&;::::&;::::dddddddi7",
"7idddddddrrrr>&rrrr>&rrrrrr&>rrrr&>rrrrdddddddi7",
"7idddddddtttt,&tttt,&tttttt&,tttt&,ttttdddddddi7"
};
