/* XPM */
static char *door_fullyopen_chest[] = {
/* columns rows colors chars-per-pixel */
"48 48 52 1 ",
"  c None",
". c #25131A",
"X c #39262E",
"o c #3C272D",
"O c #412320",
"+ c #492F2E",
"@ c #472E31",
"# c #423037",
"$ c #573730",
"% c #4C3941",
"& c #523B40",
"* c #56474E",
"= c #484453",
"- c #5B525C",
"; c #604341",
": c #6E4B43",
"> c #605052",
", c #434F65",
"< c #535062",
"1 c #4E5B74",
"2 c #5E5C70",
"3 c #5C677D",
"4 c #71666F",
"5 c #696A75",
"6 c #7F6E70",
"7 c #895A45",
"8 c #976845",
"9 c #A57745",
"0 c #8D7672",
"q c #C09344",
"w c #E0B457",
"e c #EFC560",
"r c #FFD569",
"t c #596782",
"y c #66728A",
"u c #67738B",
"i c #6D798F",
"p c #6F7F9F",
"a c #817C87",
"s c #758095",
"d c #9B8E8A",
"f c #90919E",
"g c #8895AF",
"h c #979DAA",
"j c #8B98B2",
"k c #9FA9B7",
"l c #97A3BA",
"z c #FFE39B",
"x c #FFEAB3",
"c c #A6B0C4",
"v c #ADC1CF",
"b c #FFF1CC",
/* pixels */
"                    gggggggg                    ",
"                    gggggggg                    ",
"                    gggggggg                    ",
"           ggggggg,yggggggggy,ggggggg           ",
"           ggggggg,illlllllli,ggggggg           ",
"           ggggggg,sccccccccs,ggggggg           ",
",yggggggg,yggggggg,tppppppppt,gggggggy,gggggggy,",
",yggggggg,illlllll,tppppppppt,llllllli,gggggggy,",
",yggggggg,sccccccc,tppppppppt,cccccccs,gggggggy,",
",yggggggg,tppppppp,tppppppppt,pppppppt,gggggggy,",
",illlllll,tppppppp,tppppppppt,pppppppt,llllllli,",
",sccccccc,tppppppp,tppppppppt,pppppppt,cccccccs,",
",tppppppp,tppppppp%%%%%%%%%%%%pppppppt,pppppppt,",
",tppppppp=<2222222%%%%%%%%%%%%2222222<=pppppppt,",
",tppppppp%%%%%%%%%%%%%%%%%%%%%%%%%%%%%%pppppppt,",
",tppppppp%%%%%%%%%%%%%%%%%%%%%%%%%%%%%%pppppppt,",
",1ttttttt%%%%%%%%%%%%%%%%%%%%%%%%%%%%%%ttttttt1,",
",,,,,,,,,%%%%%%%%%%%%%%%%%%%%%%%%%%%%%%,,,,,,,,,",
",sccccccc%%%%%%%%%%%%%%%%%%%%%%%%%%%%%%cccccccs,",
",yjjjjjjj%%%%%%%%%%%%%%%%%%%%%%%%%%%%%%jjjjjjjy,",
",tppppppp%%%%%%%%%%%%%%%%%%%%%%%%%%%%%%pppppppt,",
",tppppppp%%%%%%%%%%%%%%%%%%%%%%%%%%%%%%pppppppt,",
",tppppppp%%%%%%%%%%%%%%%%%%%%%%%%%%%%%%pppppppt,",
",tppppppp%%%%%%%%%%%%%%%%%%%%%%%%%%%%%%pppppppt,",
",tppppppp%%%%%%..................%%%%%%pppppppt,",
",1ttttttt%%%%#XX+$$$$$$$$$$$$$$+XX#%%%%ttttttt1,",
",,,,,,,,,%%%%X.&:77777777777777:&.X%%%%,,,,,,,,,",
",sccccccc%%%%X.777qwrrrrrrrrwq777.X%%%%cccccccs,",
",yjjjjjjj%%%%X.789werzzzzzzrew987.X%%%%jjjjjjjy,",
",tppppppp%%%%X.79qrrrbbbbbbrrrq97.X%%%%pppppppt,",
",tppppppp%%%%X.qwrrzbbbbbbbbzrrwq.X%%%%pppppppt,",
",tppppppp%%%%X.qwrzxbbbbzxbbxzrwq.X%%%%pppppppt,",
",tppppppp%%%%X.qwrbbbbbbrzbbbbrwq.X%%%%pppppppt,",
",tppppppp%%%%X.....-ffffffff-.....X%%%%pppppppt,",
",1ttttttt%%%%X.5>$X*44affa44*X$>5.X%%%%ttttttt1,",
",,,,,,,,,%%%%X.vd7&&&&4ff4&&&&7dv.X%%%%,,,,,,,,,",
",sccccccc%%%%X.fff7:&ffffff&:7fff.X%%%%cccccccs,",
",yjjjjjjj%%%%X.khf:;&460064&;:fhk.X%%%%jjjjjjjy,",
",tppppppp%%%%X.vkf&&&&:77:&&&&fkv.X%%%%pppppppt,",
",tppppppp%%%%X.vvvffffffffffffvvv.X%%%%pppppppt,",
",tppppppp%%%%X.555------------555.X%%%%pppppppt,",
",tppppppp%%%%X....................X%%%%pppppppt,",
",,,,,,,,,%%%%%%%%%%%%%%%%%%%%%%%%%%%%%%,,,,,,,,,",
",3sssssss@@@@@@@@@@@@@@@@@@@@@@@@@@@@@@sssssss3,",
",scccccccOOOOOOOOOOOOOOOOOOOOOOOOOOOOOOcccccccs,",
",tpppppppOOOOOOOOOOOOOOOOOOOOOOOOOOOOOOpppppppt,",
",tpppppppOOOOOOOOOOOOOOOOOOOOOOOOOOOOOOpppppppt,",
",tpppppppOOOOOOOOOOOOOOOOOOOOOOOOOOOOOOpppppppt,"
};
