/* XPM */
static char *info[] = {
/* columns rows colors chars-per-pixel */
"48 48 5 1 ",
"  c None",
". c black",
"X c #6E8896",
"o c #9BADB7",
"O c white",
/* pixels */
"   ..........................................   ",
"   ..........................................   ",
"   ..........................................   ",
"......oooooooooooooooooooooooooooooooooooo......",
"......oooooooooooooooooooooooooooooooooooo......",
"......oooooooooooooooooooooooooooooooooooo......",
"...ooooooOOOOOOOOOOOOOOOOOOOOOOOOOOOOOOoooooo...",
"...ooooooOOOOOOOOOOOOOOOOOOOOOOOOOOOOOOoooooo...",
"...ooooooOOOOOOOOOOOOOOOOOOOOOOOOOOOOOOoooooo...",
"...ooooooOOOOOOOOOOOOOOOOOOOOOOOOOOOOOOoooooo...",
"...ooooooOOOOOOOOOOOOOOOOOOOOOOOOOOOOOOoooooo...",
"...ooooooOOOOOOOOOOOOOOOOOOOOOOOOOOOOOOoooooo...",
"...ooooooOOOOOOOOOOOOOOOOOOOOOOOOOOOOOOoooooo...",
"...ooooooOOOOOOOOOOOOOOOOOOOOOOOOOOOOOOoooooo...",
"...ooooooOOOOOOOOOOOOOOOOOOOOOOOOOOOOOOoooooo...",
"...ooooooOOOOOOOOOOOOOOOOOOOOOOOOOOOOOOoooooo...",
"...ooooooOOOOOOOOOOOOOOOOOOOOOOOOOOOOOOoooooo...",
"...ooooooOOOOOOOOOOOOOOOOOOOOOOOOOOOOOOoooooo...",
"...ooooooOOOOOOOOOOOOOOOOOOOOOOOOOOOOOOoooooo...",
"...ooooooOOOOOOOOOOOOOOOOOOOOOOOOOOOOOOoooooo...",
"...ooooooOOOOOOOOOOOOOOOOOOOOOOOOOOOOOOoooooo...",
"...ooooooOOOOOOOOOOOOOOOOOOOOOOOOOOOOOOoooooo...",
"...ooooooOOOOOOOOOOOOOOOOOOOOOOOOOOOOOOoooooo...",
"...ooooooOOOOOOOOOOOOOOOOOOOOOOOOOOOOOOoooooo...",
"...ooooooOOOOOOOOOOOOOOOOOOOOOOOOOOOOOOoooooo...",
"...ooooooOOOOOOOOOOOOOOOOOOOOOOOOOOOOOOoooooo...",
"...ooooooOOOOOOOOOOOOOOOOOOOOOOOOOOOOOOoooooo...",
"...ooooooOOOOOOOOOOOOOOOOOOOOOOOOOOOOOOoooooo...",
"...ooooooOOOOOOOOOOOOOOOOOOOOOOOOOOOOOOoooooo...",
"...ooooooOOOOOOOOOOOOOOOOOOOOOOOOOOOOOOoooooo...",
"...ooooooOOOOOOOOOOOOOOOOOOOOOOOOOOOOOOoooooo...",
"...ooooooOOOOOOOOOOOOOOOOOOOOOOOOOOOOOOoooooo...",
"...ooooooOOOOOOOOOOOOOOOOOOOOOOOOOOOOOOoooooo...",
"...XXXooooooooooooooooooooooooooooooooooooXXX...",
"...XXXooooooooooooooooooooooooooooooooooooXXX...",
"...XXXooooooooooooooooooooooooooooooooooooXXX...",
"...XXXXXXXXXXXXXXXXXXXXXXXXXXXXXXXXXXXXXXXXXX...",
"...XXXXXXXXXXXXXXXXXXXXXXXXXXXXXXXXXXXXXXXXXX...",
"...XXXXXXXXXXXXXXXXXXXXXXXXXXXXXXXXXXXXXXXXXX...",
"...XXXXXXXXXXXXXXXXXXXXXXXXXXXXXXXXXXXXXXXXXX...",
"...XXXXXXXXXXXXXXXXXXXXXXXXXXXXXXXXXXXXXXXXXX...",
"...XXXXXXXXXXXXXXXXXXXXXXXXXXXXXXXXXXXXXXXXXX...",
"......XXXXXXXXXXXXXXXXXXXXXXXXXXXXXXXXXXXX......",
"......XXXXXXXXXXXXXXXXXXXXXXXXXXXXXXXXXXXX......",
"......XXXXXXXXXXXXXXXXXXXXXXXXXXXXXXXXXXXX......",
"   ..........................................   ",
"   ..........................................   ",
"   ..........................................   "
};
