/* XPM */
static char *knight_idle_left[] = {
/* columns rows colors chars-per-pixel */
"48 48 7 1 ",
"  c None",
". c #060608",
"X c #AC3232",
"o c #DF7126",
"O c #847E87",
"+ c #9BADB7",
"@ c white",
/* pixels */
"                        .........               ",
"                        .........               ",
"                        .........               ",
"                     ...XXXXXX...               ",
"                     ...XXXXXX...               ",
"                     ...XXXXXX...               ",
"            ............OOO...                  ",
"            ............OOO...                  ",
"            ............OOO...                  ",
"         ...++++++++++++OOOOOO...               ",
"         ...++++++++++++OOOOOO...               ",
"         ...++++++++++++OOOOOO...               ",
"         ...++++++++++++++++++OOO...            ",
"         ...++++++++++++++++++OOO...            ",
"         ...++++++++++++++++++OOO...            ",
"         ...@@@@@@@@@@@@@@@++++++...            ",
"         ...@@@@@@@@@@@@@@@++++++...            ",
"         ...@@@@@@@@@@@@@@@++++++...            ",
"         ...............@@@++++++...            ",
"         ...............@@@++++++...            ",
"         ...............@@@++++++...            ",
"         ...@@@...@@@@@@@@@+++OOO...            ",
"         ...@@@...@@@@@@@@@+++OOO...            ",
"         ...@@@...@@@@@@@@@+++OOO...            ",
"         ...XXXoooXXXXXXOOOOOO......            ",
"         ...XXXoooXXXXXXOOOOOO......            ",
"         ...XXXoooXXXXXXOOOOOO......            ",
"         ...OOOOOOOOOOOOXXXXXX...               ",
"         ...OOOOOOOOOOOOXXXXXX...               ",
"         ...OOOOOOOOOOOOXXXXXX...               ",
"         ...++++++++++++OOOOOO...XXX            ",
"         ...++++++++++++OOOOOO...XXX            ",
"         ...++++++++++++OOOOOO...XXX            ",
"         ...OOO.........OOOOOO...XXXXXX         ",
"         ...OOO.........OOOOOO...XXXXXX         ",
"         ...OOO.........OOOOOO...XXXXXX         ",
"            ...OOO...XXX...OOO...XXXXXX         ",
"            ...OOO...XXX...OOO...XXXXXX         ",
"            ...OOO...XXX...OOO...XXXXXX         ",
"               ......      ......               ",
"               ......      ......               ",
"               ......      ......               ",
"                                                ",
"                                                ",
"                                                ",
"                                                ",
"                                                ",
"                                                "
};
