/* XPM */
static char *knight_down[] = {
/* columns rows colors chars-per-pixel */
"48 48 8 1 ",
"  c None",
". c black",
"X c #060608",
"o c #AC3232",
"O c #DF7126",
"+ c #847E87",
"@ c #9BADB7",
"# c white",
/* pixels */
"               XXXXXXXXX                        ",
"               XXXXXXXXX                        ",
"               XXXXXXXXX                        ",
"               XXXooooooXXX                     ",
"               XXXooooooXXX                     ",
"               XXXooooooXXX                     ",
"                  XXX+++XXXXXXXXXXXX            ",
"                  XXX+++XXXXXXXXXXXX            ",
"                  XXX+++XXXXXXXXXXXX            ",
"               XXX++++++@@@@@@@@@@@@XXX         ",
"               XXX++++++@@@@@@@@@@@@XXX         ",
"               XXX++++++@@@@@@@@@@@@XXX         ",
"            XXX+++@@@@@@@@@@@@@@@@@@XXX         ",
"            XXX+++@@@@@@@@@@@@@@@@@@XXX         ",
"            XXX+++@@@@@@@@@@@@@@@@@@XXX         ",
"            XXX#####################XXX         ",
"            XXX#####################XXX         ",
"            XXX#####################XXX         ",
"            XXX###......XXXXXXXXX###XXX         ",
"            XXX###......XXXXXXXXX###XXX         ",
"            XXX###......XXXXXXXXX###XXX         ",
"            XXX#########...#########XXX         ",
"            XXX#########...#########XXX         ",
"            XXX#########...#########XXX         ",
"            XXXXXXooooooOOOoooooo...XXX         ",
"            XXXXXXooooooOOOoooooo...XXX         ",
"            XXXXXXooooooOOOoooooo...XXX         ",
"               XXX+++++++++++++++...            ",
"               XXX+++++++++++++++...            ",
"               XXX+++++++++++++++...            ",
"               XXX+++++++++++++++...            ",
"               XXX+++++++++++++++...            ",
"               XXX+++++++++++++++...            ",
"               XXX+++...XXXXXX+++...            ",
"               XXX+++...XXXXXX+++...            ",
"               XXX+++...XXXXXX+++...            ",
"               XXX+++XXXoooXXX+++XXX            ",
"               XXX+++XXXoooXXX+++XXX            ",
"               XXX+++XXXoooXXX+++XXX            ",
"               XXXXXX...   XXXXXX...            ",
"               XXXXXX...   XXXXXX...            ",
"               XXXXXX...   XXXXXX...            ",
"                                                ",
"                                                ",
"                                                ",
"                                                ",
"                                                ",
"                                                "
};
