/* XPM */
static char *knight_back[] = {
/* columns rows colors chars-per-pixel */
"48 48 5 1 ",
"  c None",
". c #060608",
"X c #AC3232",
"o c #847E87",
"O c #9BADB7",
/* pixels */
"               .........                        ",
"               .........                        ",
"               .........                        ",
"               ...XXXXXX...                     ",
"               ...XXXXXX...                     ",
"               ...XXXXXX...                     ",
"               ......ooo............            ",
"               ......ooo............            ",
"               ......ooo............            ",
"            ...oooooooooOOOOOOOOOOOO...         ",
"            ...oooooooooOOOOOOOOOOOO...         ",
"            ...oooooooooOOOOOOOOOOOO...         ",
"            ...oooOOOOOOOOOOOOOOOOOO...         ",
"            ...oooOOOOOOOOOOOOOOOOOO...         ",
"            ...oooOOOOOOOOOOOOOOOOOO...         ",
"            ...OOOOOOOOOOOOOOOOOOOOO...         ",
"            ...OOOOOOOOOOOOOOOOOOOOO...         ",
"            ...OOOOOOOOOOOOOOOOOOOOO...         ",
"            ...OOOOOOOOOOOOOOOOOOOOO...         ",
"            ...OOOOOOOOOOOOOOOOOOOOO...         ",
"            ...OOOOOOOOOOOOOOOOOOOOO...         ",
"            ...oooOOOOOOOOOOOOOOOOOO...         ",
"            ...oooOOOOOOOOOOOOOOOOOO...         ",
"            ...oooOOOOOOOOOOOOOOOOOO...         ",
"            ......XXXXXXXXXXXXXXX......         ",
"            ......XXXXXXXXXXXXXXX......         ",
"            ......XXXXXXXXXXXXXXX......         ",
"               ...XXXXXXXXXXXXXXX...            ",
"               ...XXXXXXXXXXXXXXX...            ",
"               ...XXXXXXXXXXXXXXX...            ",
"               ...XXXXXXXXXXXXXXX...            ",
"               ...XXXXXXXXXXXXXXX...            ",
"               ...XXXXXXXXXXXXXXX...            ",
"               ...XXXXXXXXXXXXXXX...            ",
"               ...XXXXXXXXXXXXXXX...            ",
"               ...XXXXXXXXXXXXXXX...            ",
"               ...XXXXXXXXXXXXXXX...            ",
"               ...XXXXXXXXXXXXXXX...            ",
"               ...XXXXXXXXXXXXXXX...            ",
"               .........   .........            ",
"               .........   .........            ",
"               .........   .........            ",
"                                                ",
"                                                ",
"                                                ",
"                                                ",
"                                                ",
"                                                "
};
