/* XPM */
static char *knight_idle[] = {
/* columns rows colors chars-per-pixel */
"48 48 7 1 ",
"  c None",
". c #060608",
"X c #AC3232",
"o c #DF7126",
"O c #847E87",
"+ c #9BADB7",
"@ c white",
/* pixels */
"               .........                        ",
"               .........                        ",
"               .........                        ",
"               ...XXXXXX...                     ",
"               ...XXXXXX...                     ",
"               ...XXXXXX...                     ",
"                  ...OOO............            ",
"                  ...OOO............            ",
"                  ...OOO............            ",
"               ...OOOOOO++++++++++++...         ",
"               ...OOOOOO++++++++++++...         ",
"               ...OOOOOO++++++++++++...         ",
"            ...OOO++++++++++++++++++...         ",
"            ...OOO++++++++++++++++++...         ",
"            ...OOO++++++++++++++++++...         ",
"            ...++++++@@@@@@@@@@@@@@@...         ",
"            ...++++++@@@@@@@@@@@@@@@...         ",
"            ...++++++@@@@@@@@@@@@@@@...         ",
"            ...++++++@@@...............         ",
"            ...++++++@@@...............         ",
"            ...++++++@@@...............         ",
"            ...OOO+++@@@@@@@@@...@@@...         ",
"            ...OOO+++@@@@@@@@@...@@@...         ",
"            ...OOO+++@@@@@@@@@...@@@...         ",
"            ......OOOOOOXXXXXXoooXXX...         ",
"            ......OOOOOOXXXXXXoooXXX...         ",
"            ......OOOOOOXXXXXXoooXXX...         ",
"               ...XXXXXXOOOOOOOOOOOO...         ",
"               ...XXXXXXOOOOOOOOOOOO...         ",
"               ...XXXXXXOOOOOOOOOOOO...         ",
"            XXX...OOOOOO++++++++++++...         ",
"            XXX...OOOOOO++++++++++++...         ",
"            XXX...OOOOOO++++++++++++...         ",
"         XXXXXX...OOOOOO.........OOO...         ",
"         XXXXXX...OOOOOO.........OOO...         ",
"         XXXXXX...OOOOOO.........OOO...         ",
"         XXXXXX...OOO...XXX...OOO...            ",
"         XXXXXX...OOO...XXX...OOO...            ",
"         XXXXXX...OOO...XXX...OOO...            ",
"               ......      ......               ",
"               ......      ......               ",
"               ......      ......               ",
"                                                ",
"                                                ",
"                                                ",
"                                                ",
"                                                ",
"                                                "
};
