/* XPM */
static char *barrel[] = {
/* columns rows colors chars-per-pixel */
"48 48 8 1 ",
"  c #191919",
". c #34292E",
"X c #4D3533",
"o c #63413D",
"O c #514047",
"+ c #704844",
"@ c #898989",
"# c #A4A4A4",
/* pixels */
"OOOOOOOOOOOOOOOOOO               OOOOOOOOOOOOOOO",
"OOOOOOOOOOOOOOOOOO               OOOOOOOOOOOOOOO",
"OOOOOOOOOOOOOOOOOO               OOOOOOOOOOOOOOO",
"OOOOOOOOOOOOOOO   @@@@@@@@@@@@###   OOOOOOOOOOOO",
"OOOOOOOOOOOOOOO   @@@@@@@@@@@@###   OOOOOOOOOOOO",
"OOOOOOOOOOOOOOO   @@@@@@@@@@@@###   OOOOOOOOOOOO",
"OOOOOOOOOOOO   @@@XXXooo++++++ooo###   OOOOOOOOO",
"OOOOOOOOOOOO   @@@XXXooo++++++ooo###   OOOOOOOOO",
"OOOOOOOOOOOO   @@@XXXooo++++++ooo###   OOOOOOOOO",
"OOOOOOOOO   @@@XXXoooooo++++++oooooo###   OOOOOO",
"OOOOOOOOO   @@@XXXoooooo++++++oooooo###   OOOOOO",
"OOOOOOOOO   @@@XXXoooooo++++++oooooo###   OOOOOO",
"OOOOOOOOO   @@@XXXooo++++++++++++ooo###   OOOOOO",
"OOOOOOOOO   @@@XXXooo++++++++++++ooo###   OOOOOO",
"OOOOOOOOO   @@@XXXooo++++++++++++ooo###   OOOOOO",
"OOOOOOOOO      @@@XXXoooooooooooo###      OOOOOO",
"OOOOOOOOO      @@@XXXoooooooooooo###      OOOOOO",
"OOOOOOOOO      @@@XXXoooooooooooo###      OOOOOO",
"OOOOOOOOO   XXXXXX@@@@@@@@@@@@###oooooo   OOOOOO",
"OOOOOOOOO   XXXXXX@@@@@@@@@@@@###oooooo   OOOOOO",
"OOOOOOOOO   XXXXXX@@@@@@@@@@@@###oooooo   OOOOOO",
"OOOOOOOOO   @@@XXX++++++ooo++++++ooo###   OOOOOO",
"OOOOOOOOO   @@@XXX++++++ooo++++++ooo###   OOOOOO",
"OOOOOOOOO   @@@XXX++++++ooo++++++ooo###   OOOOOO",
"OOOOOOOOO   XXX@@@++++++ooo++++++###ooo   OOOOOO",
"OOOOOOOOO   XXX@@@++++++ooo++++++###ooo   OOOOOO",
"OOOOOOOOO   XXX@@@++++++ooo++++++###ooo   OOOOOO",
"OOOOOOOOO   XXXXXX@@@@@@@@@@@@@@@oooooo   OOOOOO",
"OOOOOOOOO   XXXXXX@@@@@@@@@@@@@@@oooooo   OOOOOO",
"OOOOOOOOO   XXXXXX@@@@@@@@@@@@@@@oooooo   OOOOOO",
"OOOOOOOOO   XXX+++++++++ooo++++++oooooo   OOOOOO",
"OOOOOOOOO   XXX+++++++++ooo++++++oooooo   OOOOOO",
"OOOOOOOOO   XXX+++++++++ooo++++++oooooo   OOOOOO",
"OOOOOOOOO...   XXX++++++ooo++++++ooo   ...OOOOOO",
"OOOOOOOOO...   XXX++++++ooo++++++ooo   ...OOOOOO",
"OOOOOOOOO...   XXX++++++ooo++++++ooo   ...OOOOOO",
"OOOOOOOOO......   ooooooooooooooo   ......OOOOOO",
"OOOOOOOOO......   ooooooooooooooo   ......OOOOOO",
"OOOOOOOOO......   ooooooooooooooo   ......OOOOOO",
"OOOOOOOOO.........               .........OOOOOO",
"OOOOOOOOO.........               .........OOOOOO",
"OOOOOOOOO.........               .........OOOOOO",
"OOOOOOOOO.................................OOOOOO",
"OOOOOOOOO.................................OOOOOO",
"OOOOOOOOO.................................OOOOOO",
"OOOOOOOOOOOO...........................OOOOOOOOO",
"OOOOOOOOOOOO...........................OOOOOOOOO",
"OOOOOOOOOOOO...........................OOOOOOOOO"
};
