/* XPM */
static char *bottom_right_corner[] = {
/* columns rows colors chars-per-pixel */
"48 48 7 1 ",
"  c #353E50",
". c #514047",
"X c #434F65",
"o c #5A6988",
"O c #6F7F9F",
"+ c #8895AF",
"@ c #A6B0C4",
/* pixels */
".................................+++@@@++++++...",
".................................+++@@@++++++...",
".................................+++@@@++++++...",
"++++++++++++.....................+++@@@++++++...",
"++++++++++++.....................+++@@@++++++...",
"++++++++++++.....................+++@@@++++++...",
"++++++++++++XXX+++++++++++++++XXX+++@@@++++++...",
"++++++++++++XXX+++++++++++++++XXX+++@@@++++++...",
"++++++++++++XXX+++++++++++++++XXX+++@@@++++++...",
"@@@@@@@@@@@@XXX@@@@@@@@@@@@@@@XXX@@@@@@++++++...",
"@@@@@@@@@@@@XXX@@@@@@@@@@@@@@@XXX@@@@@@++++++...",
"@@@@@@@@@@@@XXX@@@@@@@@@@@@@@@XXX@@@@@@++++++...",
"OOOOOOOOOOOOXXXOOOOOOOOOOOOOOOXXXOOOOOOOOOOOO...",
"OOOOOOOOOOOOXXXOOOOOOOOOOOOOOOXXXOOOOOOOOOOOO...",
"OOOOOOOOOOOOXXXOOOOOOOOOOOOOOOXXXOOOOOOOOOOOO...",
"OOOOOOOOOOOOXXXOOOOOOOOOOOOOOOXXXOOOOOOOOOOOO...",
"OOOOOOOOOOOOXXXOOOOOOOOOOOOOOOXXXOOOOOOOOOOOO...",
"OOOOOOOOOOOOXXXOOOOOOOOOOOOOOOXXXOOOOOOOOOOOO...",
"OOOOOOOOOOOOXXXOOOOOOOOOOOOOOOXXXOOOOOOOOOOOO...",
"OOOOOOOOOOOOXXXOOOOOOOOOOOOOOOXXXOOOOOOOOOOOO...",
"OOOOOOOOOOOOXXXOOOOOOOOOOOOOOOXXXOOOOOOOOOOOO...",
"XXXXXXXXXXXXXXXXXXXXXXXXXXXXXXXXXXXXXXXXXXXXX...",
"XXXXXXXXXXXXXXXXXXXXXXXXXXXXXXXXXXXXXXXXXXXXX...",
"XXXXXXXXXXXXXXXXXXXXXXXXXXXXXXXXXXXXXXXXXXXXX...",
"XXXXXXXXXXXXXXXXXXXXXXXXOOOOOOOOOOOOOOOOOOOOO...",
"XXXXXXXXXXXXXXXXXXXXXXXXOOOOOOOOOOOOOOOOOOOOO...",
"XXXXXXXXXXXXXXXXXXXXXXXXOOOOOOOOOOOOOOOOOOOOO...",
"XXXXXXXXXXXXXXXXXXXXXXXXOOOoooooooooooooooOOO...",
"XXXXXXXXXXXXXXXXXXXXXXXXOOOoooooooooooooooOOO...",
"XXXXXXXXXXXXXXXXXXXXXXXXOOOoooooooooooooooOOO...",
"XXXXXXXXXXXXXXXXXXXXXXXXooooooooooooXXXoooooo...",
"XXXXXXXXXXXXXXXXXXXXXXXXooooooooooooXXXoooooo...",
"XXXXXXXXXXXXXXXXXXXXXXXXooooooooooooXXXoooooo...",
"         XXX                  XXXXXX         ...",
"         XXX                  XXXXXX         ...",
"         XXX                  XXXXXX         ...",
"OOOOOOOOOXXXOOOOOOOOOOOOOOOOOO   XXXOOOOOOOOO...",
"OOOOOOOOOXXXOOOOOOOOOOOOOOOOOO   XXXOOOOOOOOO...",
"OOOOOOOOOXXXOOOOOOOOOOOOOOOOOO   XXXOOOOOOOOO...",
"ooooooOOOXXXOOOoooooooooooooooOOOXXXOOOoooooo...",
"ooooooOOOXXXOOOoooooooooooooooOOOXXXOOOoooooo...",
"ooooooOOOXXXOOOoooooooooooooooOOOXXXOOOoooooo...",
"oooooooooXXXoooooooooooooooooooooXXXooooooooo...",
"oooooooooXXXoooooooooooooooooooooXXXooooooooo...",
"oooooooooXXXoooooooooooooooooooooXXXooooooooo...",
"XXXXXXXXXXXXXXXXXXXXXXXXXXXXXXXXXXXXXXXXXXXXX...",
"XXXXXXXXXXXXXXXXXXXXXXXXXXXXXXXXXXXXXXXXXXXXX...",
"XXXXXXXXXXXXXXXXXXXXXXXXXXXXXXXXXXXXXXXXXXXXX..."
};
