/* XPM */
static char *bottom_left_corner[] = {
/* columns rows colors chars-per-pixel */
"48 48 7 1 ",
"  c #353E50",
". c #514047",
"X c #434F65",
"o c #5A6988",
"O c #6F7F9F",
"+ c #8895AF",
"@ c #A6B0C4",
/* pixels */
"...+++++++++@@@XXXXXXXXX........................",
"...+++++++++@@@XXXXXXXXX........................",
"...+++++++++@@@XXXXXXXXX........................",
"...+++++++++@@@XXXXXXXXX............++++++++++++",
"...+++++++++@@@XXXXXXXXX............++++++++++++",
"...+++++++++@@@XXXXXXXXX............++++++++++++",
"...+++++++++@@@XXX+++++++++++++++...++++++++++++",
"...+++++++++@@@XXX+++++++++++++++...++++++++++++",
"...+++++++++@@@XXX+++++++++++++++...++++++++++++",
"...+++++++++@@@XXX@@@@@@@@@@@@@@@XXX@@@@@@@@@@@@",
"...+++++++++@@@XXX@@@@@@@@@@@@@@@XXX@@@@@@@@@@@@",
"...+++++++++@@@XXX@@@@@@@@@@@@@@@XXX@@@@@@@@@@@@",
"...OOOOOOOOOOOOXXXOOOOOOOOOOOOOOOXXXOOOOOOOOOOOO",
"...OOOOOOOOOOOOXXXOOOOOOOOOOOOOOOXXXOOOOOOOOOOOO",
"...OOOOOOOOOOOOXXXOOOOOOOOOOOOOOOXXXOOOOOOOOOOOO",
"...OOOOOOOOOOOOXXXOOOOOOOOOOOOOOOXXXOOOOOOOOOOOO",
"...OOOOOOOOOOOOXXXOOOOOOOOOOOOOOOXXXOOOOOOOOOOOO",
"...OOOOOOOOOOOOXXXOOOOOOOOOOOOOOOXXXOOOOOOOOOOOO",
"...OOOOOOOOOOOOXXXOOOOOOOOOOOOOOOXXXOOOOOOOOOOOO",
"...OOOOOOOOOOOOXXXOOOOOOOOOOOOOOOXXXOOOOOOOOOOOO",
"...OOOOOOOOOOOOXXXOOOOOOOOOOOOOOOXXXOOOOOOOOOOOO",
"...XXXXXXXXXXXXXXXXXXXXXXXXXXXXXXXXXXXXXXXXXXXXX",
"...XXXXXXXXXXXXXXXXXXXXXXXXXXXXXXXXXXXXXXXXXXXXX",
"...XXXXXXXXXXXXXXXXXXXXXXXXXXXXXXXXXXXXXXXXXXXXX",
"...OOOOOOOOOOOOOOOOOOOOOXXXXXXXXXXXXXXXXXXXXXXXX",
"...OOOOOOOOOOOOOOOOOOOOOXXXXXXXXXXXXXXXXXXXXXXXX",
"...OOOOOOOOOOOOOOOOOOOOOXXXXXXXXXXXXXXXXXXXXXXXX",
"...OOOoooooooooooooooOOOXXXXXXXXXXXXXXXXXXXXXXXX",
"...OOOoooooooooooooooOOOXXXXXXXXXXXXXXXXXXXXXXXX",
"...OOOoooooooooooooooOOOXXXXXXXXXXXXXXXXXXXXXXXX",
"...ooooooXXXooooooooooooXXXXXXXXXXXXXXXXXXXXXXXX",
"...ooooooXXXooooooooooooXXXXXXXXXXXXXXXXXXXXXXXX",
"...ooooooXXXooooooooooooXXXXXXXXXXXXXXXXXXXXXXXX",
"...         XXXXXX                  XXX         ",
"...         XXXXXX                  XXX         ",
"...         XXXXXX                  XXX         ",
"...OOOOOOOOOXXX   OOOOOOOOOOOOOOOOOOXXXOOOOOOOOO",
"...OOOOOOOOOXXX   OOOOOOOOOOOOOOOOOOXXXOOOOOOOOO",
"...OOOOOOOOOXXX   OOOOOOOOOOOOOOOOOOXXXOOOOOOOOO",
"...ooooooOOOXXXOOOoooooooooooooooOOOXXXOOOoooooo",
"...ooooooOOOXXXOOOoooooooooooooooOOOXXXOOOoooooo",
"...ooooooOOOXXXOOOoooooooooooooooOOOXXXOOOoooooo",
"...oooooooooXXXoooooooooooooooooooooXXXooooooooo",
"...oooooooooXXXoooooooooooooooooooooXXXooooooooo",
"...oooooooooXXXoooooooooooooooooooooXXXooooooooo",
"...XXXXXXXXXXXXXXXXXXXXXXXXXXXXXXXXXXXXXXXXXXXXX",
"...XXXXXXXXXXXXXXXXXXXXXXXXXXXXXXXXXXXXXXXXXXXXX",
"...XXXXXXXXXXXXXXXXXXXXXXXXXXXXXXXXXXXXXXXXXXXXX"
};
