/* XPM */
static char *top_left_corner[] = {
/* columns rows colors chars-per-pixel */
"48 48 13 1 ",
"  c #353E50",
". c #514047",
"X c #434F65",
"o c #4A566C",
"O c #5A6988",
"+ c #5B6A89",
"@ c #5C6B8A",
"# c #677695",
"$ c #6F7F9F",
"% c #70809F",
"& c #7080A0",
"* c #8895AF",
"= c #A6B0C4",
/* pixels */
"................................................",
"................................................",
"................................................",
"...************************XXX******************",
"...************************XXX******************",
"...************************XXX******************",
"...************************XXX******************",
"...************************XXX******************",
"...************************XXX******************",
"...*********===============XXX==================",
"...*********===============XXX==================",
"...*********===============XXX==================",
"...*********===***$$$$$$$$$XXX$$$$$$$$$$$$$$$$$$",
"...*********===***$$$$$$$$$XXX$$$$$$$$$$$$$$$$$$",
"...*********===***$$$$$$$$$XXX$$$$$$$$$$$$$$$$$$",
"...XXXXXXXXX===XXX$$$$$$$$$XXX$$$$$$$$$$$$$$$$$$",
"...XXXXXXXXX===XXX$$$$$$$$$XXX$$$$$$$$$$$$$$$$$$",
"...XXXXXXXXX===XXX$$$$$$$$$XXX$$$$$$$$$$$$$$$$$$",
"...*********===$$$$$$$$$$$$XXX$$$$$$$$$$$$$$$$$$",
"...*********===$$$$$$$$$$$$XXX$$$$$$$$$$$$$$$$$$",
"...*********===$$$$$$$$$$$$XXX$$$$$$$$$$$$$$$$$$",
"...*********===$$$##############################",
"...*********===$$$##############################",
"...*********===$$$##############################",
"...*********===$$$%%%$$$XXX$$$$$$$$$$$$$$$$$$$$$",
"...*********===$$$%%%$$$XXX$$$$$$$$$$$$$$$$$$$$$",
"...*********===$$$%%%$&&XXX$$$$$$$$$$$$$$$$$$$$$",
"...*********===$$$OOO$&&XXX$$$OOOOOOOOOOOOOOO$$$",
"...*********===$$$OOO$$&XXX$$$OOOOOOOOOOOOOOO$$$",
"...*********===$$$OOO$$$XXX$$$OOOOOOOOOOOOOOO$$$",
"...*********===$$$OOOOOOXXXOOOOOOOOOOOOOOOOOOOOO",
"...*********===$$$OOOOOOXXXOOOOOOOOOOOOOOOOOOOOO",
"...*********===$$$OOOOOOXXXOOOOOOOOOOOOOOOOOOOOO",
"...XXXXXXXXX===XXX                  XXX         ",
"...XXXXXXXXX===XXX                  XXX         ",
"...XXXXXXXXX===XXX                  XXX         ",
"...*********===$$$&&&$$$$$$$$$$$$$$$XXX$$$$$$$$$",
"...*********===$$$&&&$$$$$$$$$$$$$$$XXX$$$$$$$$$",
"...*********===$$$&&&$$$$$$$$$$$$$$$XXX$$$$$$$$$",
"...*********===$$$OOOOOOOOOOOOOOO$$$XXX$$$OOOOOO",
"...*********===$$$OOOOOOOOOOOOOOO$$$XXX$$$OOOOOO",
"...*********===$$$OOOOOOOOOOOOOOO$$$XXX$$$OOOOOO",
"...*********===$$$OOOOOOOOOOOOOOOOOOXXXOOOOOOOOO",
"...*********===$$$OOOOOOOOOOOOOOOOOOXXXOOOOOOOOO",
"...*********===$$$OOOOOOOOOOOOOOOOOOXXXOOOOOOOOO",
"...*********===$$$oooXXXXXXXXXXXXXXXXXXXXXXXXXXX",
"...*********===$$$oooXXXXXXXXXXXXXXXXXXXXXXXXXXX",
"...*********===$$$oooXXXXXXXXXXXXXXXXXXXXXXXXXXX"
};
