/* XPM */
static char *wall_right_torch[] = {
/* columns rows colors chars-per-pixel */
"48 48 62 1 ",
"  c #25131A",
". c #27141A",
"X c #27151A",
"o c #2C171B",
"O c #2E191B",
"+ c #321B1C",
"@ c #321C1C",
"# c #361D1C",
"$ c #361E1C",
"% c #381F1D",
"& c #3C211D",
"* c #3D211D",
"= c #3F231D",
"- c #45271E",
"; c #724736",
": c #514047",
"> c #534147",
", c #544247",
"< c #574346",
"1 c #574347",
"2 c #5A4546",
"3 c #5C4446",
"4 c #5F4746",
"5 c #5A585F",
"6 c #5F5A5E",
"7 c #614845",
"8 c #614945",
"9 c #7A5543",
"0 c #7A5642",
"q c #7E5742",
"w c #625B5D",
"e c #6F6059",
"r c #776457",
"t c #7D6655",
"y c #7C6556",
"u c #434F65",
"i c #465064",
"p c #93623F",
"a c #95633F",
"s c #99653F",
"d c #9B663F",
"f c #A0673E",
"g c #A16B3E",
"h c #A46B3D",
"j c #855A41",
"k c #895C41",
"l c #8A5D41",
"z c #8A5D42",
"x c #8C5E40",
"c c #8C5F41",
"v c #8E5E40",
"b c #8E5F41",
"n c #BC4C51",
"m c #936240",
"M c #946240",
"N c #D1851E",
"B c #FFD569",
"V c #6F7F9F",
"C c #90919E",
"Z c #8895AF",
"A c #A6B0C4",
"S c #ADC1CF",
/* pixels */
"::::::222222bbbaaaaaa777uuuVVVVVVVVVAAAZZZZZZ:::",
"::::::222222bbbaaaaaa777uuuVVVVVVVVVAAAZZZZZZ:::",
"::::::222222bbbaaaaaa777uuuVVVVVVVVVAAAZZZZZZ:::",
"::::::000bbbbbb---sffggg555VVVVVVVVVAAAZZZZZZ:::",
"::::::000bbbbbb---fffggg555VVVVVVVVVAAAZZZZZZ:::",
"::::::000bbbbbb---fffggg555VVVVVVVVVAAAZZZZZZ:::",
":::222bbbbbb@@@nnn@@@sssrrrVVVVVVVVVAAAZZZZZZ:::",
":::222bbbbbb@@@nnn@@@sssrrrVVVVVVVVVAAAZZZZZZ:::",
":::222bbbbbb@@@nnn@@@sssrrrVVVVVVVVVAAAZZZZZZ:::",
":::sssMMMooonnnnnnnnn===yyyuuuuuuuuuuuuuuu::::::",
":::sssMMMooonnnnnnnnn===yyyuuuuuuuuuuuuuuu::::::",
":::sssMMMooonnnnnnnnn===yyyuuuuuuuuuuuuuuu::::::",
":::MMM@@@nnnnnnNNNnnn===yyyVVVVVVVVVAAAZZZZZZZZZ",
":::MMM@@@nnnnnnNNNnnn===yyyVVVVVVVVVAAAZZZZZZZZZ",
":::MMM@@@nnnnnnNNNnnn===yyyVVVVVVVVVAAAZZZZZZZZZ",
"222bbb   nnnnnnNNNNNN%%%eeeVVVVVVVVVAAAZZZZZZZZZ",
":::bbb   nnnnnnNNNNNN%%%eeeVVVVVVVVVAAAZZZZZZZZZ",
":::bbb   nnnnnnNNNNNN%%%eeeVVVVVVVVVAAAZZZZZZZZZ",
":::bbb   nnnNNNNNNBBBOOOwwwVVVVVVVVVAAAZZZZZZZZZ",
":::bbb   nnnNNNNNNBBBOOOwwwVVVVVVVVVAAAZZZZZZZZZ",
"2:2bbb   nnnNNNNNNBBBOOOwwwVVVVVVVVVAAAZZZZZZZZZ",
":::jjj===nnnNNNBBBBBB@@@555VVVVVVVVVAAAZZZZZZZZZ",
":::jjj===nnnNNNBBBBBB@@@555VVVVVVVVVAAAZZZZZZZZZ",
":::jjj===nnnNNNBBBBBB@@@ww5VVVVVVVVVAAAZZZZZZZZZ",
":::000ggg   SSSSSSCCC   iiiVVVVVVVVVAAAZZZZZZZZZ",
":::000ggg   SSSSSSCCC   iiiVVVVVVVVVAAAZZZZZZZZZ",
":::000ggg   SSSSSSCCC   iiiVVVVVVVVVAAAZZZZZZZZZ",
":::777000OOO;;;;;;;;;   uuuVVVVVVVVVAAAZZZZZZZZZ",
":::777000OOO;;;;;;;;;   uuuVVVVVVVVVAAAZZZZZZZZZ",
":::777000OOO;;;;;;;;;   uuuVVVVVVVVVAAAZZZZZZZZZ",
"::::::::::::   CCCCCC   uuuVVVVVVVVVAAAZZZZZZZZZ",
"::::::::::::   CCCCCC   uuuVVVVVVVVVAAAZZZZZZZZZ",
"::::::::::::   CCCCCC   uuuVVVVVVVVVAAAZZZZZZZZZ",
"::::::::::::   ;;;;;;   uuuuuuuuuuuuuuuuuu::::::",
"::::::::::::   ;;;;;;   uuuuuuuuuuuuuuuuuu::::::",
"::::::::::::   ;;;;;;   uuuuuuuuuuuuuuuuuu::::::",
"::::::::::::   ;;;;;;   uuuVVVVVVVVVAAAZZZZZZ:::",
"::::::::::::   ;;;;;;   uuuVVVVVVVVVAAAZZZZZZ:::",
"::::::::::::   ;;;;;;   uuuVVVVVVVVVAAAZZZZZZ:::",
":::::::::::::::         uuuVVVVVVVVVAAAZZZZZZ:::",
":::::::::::::::         uuuVVVVVVVVVAAAZZZZZZ:::",
":::::::::::::::         uuuVVVVVVVVVAAAZZZZZZ:::",
"::::::::::::::::::::::::uuuVVVVVVVVVAAAZZZZZZ:::",
"::::::::::::::::::::::::uuuVVVVVVVVVAAAZZZZZZ:::",
"::::::::::::::::::::::::uuuVVVVVVVVVAAAZZZZZZ:::",
"::::::::::::::::::::::::uuuVVVVVVVVVAAAZZZZZZ:::",
"::::::::::::::::::::::::uuuVVVVVVVVVAAAZZZZZZ:::",
"::::::::::::::::::::::::uuuVVVVVVVVVAAAZZZZZZ:::"
};
