/* XPM */
static char *wall[] = {
/* columns rows colors chars-per-pixel */
"48 48 36 1 ",
"  c #353E50",
". c #363F51",
"X c #374052",
"o c #374153",
"O c #3A4356",
"+ c #3A4357",
"@ c #3A4457",
"# c #3B4458",
"$ c #3B4558",
"% c #3B4559",
"& c #3C4559",
"* c #3C4659",
"= c #514047",
"- c #424E64",
"; c #434F65",
": c #455269",
"> c #465269",
", c #47536A",
"< c #47546A",
"1 c #47546B",
"2 c #48546B",
"3 c #48556C",
"4 c #515F78",
"5 c #596886",
"6 c #5A6988",
"7 c #61708D",
"8 c #62708D",
"9 c #62718D",
"0 c #62718E",
"q c #677695",
"w c #677795",
"e c #6C7B9A",
"r c #6E7D9D",
"t c #6F7F9F",
"y c #8895AF",
"u c #A6B0C4",
/* pixels */
"===============yyyyyyyyyyyyyyyyyyyyy============",
"===============yyyyyyyyyyyyyyyyyyyyy============",
"===============yyyyyyyyyyyyyyyyyyyyy============",
"yyyyyyyyyyyy===yyyyyyyyyyyyyyyyyyyyy===yyyyyyyyy",
"yyyyyyyyyyyy===yyyyyyyyyyyyyyyyyyyyy===yyyyyyyyy",
"yyyyyyyyyyyy===yyyyyyyyyyyyyyyyyyyyy===yyyyyyyyy",
"yyyyyyyyyyyy;;;yyyyyyyyyyyyyyyyyyyyy;;;yyyyyyyyy",
"yyyyyyyyyyyy;;;yyyyyyyyyyyyyyyyyyyyy;;;yyyyyyyyy",
"yyyyyyyyyyyy;;;yyyyyyyyyyyyyyyyyyyyy;;;yyyyyyyyy",
"uuuuuuuuuuuu;;;uuuuuuuuuuuuuuuuuuuuu;;;uuuuuuuuu",
"uuuuuuuuuuuu;;;uuuuuuuuuuuuuuuuuuuuu;;;uuuuuuuuu",
"uuuuuuuuuuuu;;;uuuuuuuuuuuuuuuuuuuuu;;;uuuuuuuuu",
"tttttttttttt;;;ttttttttttttttttttttt;;;ttttttttt",
"tttttttttttt;;;ttttttttttttttttttttt;;;ttttttttt",
"tttttttttttt;;;ttttttttttttttttttttt;;;ttttttttt",
"tttttttttttt;;;ttttttttttttttttttttt;;;ttttttttt",
"tttttttttttt;;;ttttttttttttttttttttt;;;ttttttttt",
"tttttttttttt;;;ttttttttttttttttttttt;;;ttttttttt",
"tttttttttttt;;;ttttttttttttttttttttt;;;ttttttttt",
"tttttttttttt;;;ttttttttttttttttttttt;;;ttttttttt",
"tttttttttttt;;;ttttttttttttttttttttt;;;ttttttttt",
"qqqqqqqqqttt>>>000000000000000000000>>>000000444",
"qqqqqqqqqttt>>>000000000000000000000>>>000000444",
"qqqqqqqqqttt>>>000000000000000000000>>>000000444",
">>>***@@@ooo;;;@@@@@@***333*********;;;***@@@ooo",
">>>***@@@ooo;;;@@@@@@***333*********;;;***@@@ooo",
">>>***@@@ooo;;;@@@@@@***333*********;;;***@@@ooo",
";;;ttttttttt333ttttttttt;;;ttttttttt>>>ttttttttt",
";;;ttttttttt333ttttttttt;;;ttttttttt>>>ttttttttt",
";;;ttttttttt333ttttttttt;;;ttttttttt>>>ttttttttt",
";;;ttt666666>>>555666ttt;;;ttt666666>>>666666ttt",
";;;ttt666666>>>555566ttt;;;ttt666666>>>666666ttt",
";;;ttt666666>>>555666ttt;;;ttt666666>>>666666ttt",
"            ;;;                     ;;;         ",
"            ;;;                     ;;;         ",
"            ;;;                     ;;;         ",
"tttttttttttt;;;ttttttttttttttttttttt;;;ttttttttt",
"tttttttttttt;;;ttttttttttttttttttttt;;;ttttttttt",
"tttttttttttt;;;ttttttttttttttttttttt;;;ttttttttt",
"666666666ttt;;;ttt666666666666666ttt;;;ttt666666",
"666666666ttt;;;ttt666666666666666ttt;;;ttt666666",
"666666666ttt;;;ttt666666666666666ttt;;;ttt666666",
"666666666666;;;;;;666666666666666666;;;666666666",
"666666666666;;;;;;666666666666666666;;;666666666",
"666666666666;;;;;;666666666666666666;;;666666666",
";;;                     ;;;                     ",
";;;                     ;;;                     ",
";;;                     ;;;                     "
};
