/* XPM */
static char *key_s1[] = {
/* columns rows colors chars-per-pixel */
"48 48 5 1 ",
"  c #25131A",
". c #4C3941",
"X c #514047",
"o c #90919E",
"O c #ADC1CF",
/* pixels */
"XXXXXXXXXXXXXXXXXXXXXXXXXXXXXXXXXXXXXXXXXXXXXXXX",
"XXXXXXXXXXXXXXXXXXXXXXXXXXXXXXXXXXXXXXXXXXXXXXXX",
"XXXXXXXXXXXXXXXXXXXXXXXXXXXXXXXXXXXXXXXXXXXXXXXX",
"XXXXXXXXXXXXXXXXXXXXXXXXXXXXXXXXXXXXXXXXXXXXXXXX",
"XXXXXXXXXXXXXXXXXXXXXXXXXXXXXXXXXXXXXXXXXXXXXXXX",
"XXXXXXXXXXXXXXXXXXXXXXXXXXXXXXXXXXXXXXXXXXXXXXXX",
"XXXXXXXXXXXXXXXXXXXXXXXXXXXXXXXXXXXX...XXXXXXXXX",
"XXXXXXXXXXXXXXXXXXXXXXXXXXXXXXXXXXXX...XXXXXXXXX",
"XXXXXXXXXXXXXXXXXXXXXXXXXXXXXXXXXXXX...XXXXXXXXX",
"XXXXXXXXXXXXXXX...XXXXXXXXXXXXXXXXXXXXXXXXXXXXXX",
"XXXXXXXXXXXXXXX...XXXXXXXXXXXXXXXXXXXXXXXXXXXXXX",
"XXXXXXXXXXXXXXX...XXXXXXXXXXXXXXXXXXXXXXXXXXXXXX",
"XXXXXXXXXXXXXXXXXXXXXXXXXXXXXXXXXXXXXXXXXXXXXXXX",
"XXXXXXXXXXXXXXXXXXXXXXXXXXXXXXXXXXXXXXXXXXXXXXXX",
"XXXXXXXXXXXXXXXXXXXXXXXXXXXXXXXXXXXXXXXXXXXXXXXX",
"XXXXXXXXXXXXXXXXXXXXXXXXXXXXXXXXXXXXXXXXXXXXXXXX",
"XXXXXXXXXXXXXXXXXXXXXXXXXXXXXXXXXXXXXXXXXXXXXXXX",
"XXXXXXXXXXXXXXXXXXXXXXXXXXXXXXXXXXXXXXXXXXXXXXXX",
"XXXXXXXXXXXXXXXXXXXXXXXXXXXXXXXXXXXXXXXXXXXXXXXX",
"XXXXXXXXXXXXXXXXXXXXXXXXXXXXXXXXXXXXXXXXXXXXXXXX",
"XXXXXXXXXXXXXXXXXXXXXXXXXXXXXXXXXXXXXXXXXXXXXXXX",
"XXXXXXXXXXXXXXX      XXXXXX...XXXXXXXXXXXXXXXXXX",
"XXXXXXXXXXXXXXX      XXXXXX...XXXXXXXXXXXXXXXXXX",
"XXXXXXXXXXXXXXX      XXXXXX...XXXXXXXXXXXXXXXXXX",
"XXXXXXXXXXXX   oooOOO   XXXXXXXXXXXXXXXXXXXXXXXX",
"XXXXXXXXXXXX   oooOOO   XXXXXXXXXXXXXXXXXXXXXXXX",
"XXXXXXXXXXXX   oooOOO   XXXXXXXXXXXXXXXXXXXXXXXX",
"XXXXXXXXX   ooo      ooo                  XXXXXX",
"XXXXXXXXX   ooo      ooo                  XXXXXX",
"XXXXXXXXX   ooo      ooo                  XXXXXX",
"XXXXXXXXX   ooo   XXXoooooooooooooooooo   XXXXXX",
"XXXXXXXXX   ooo   XXXoooooooooooooooooo   XXXXXX",
"XXXXXXXXX   ooo   XXXoooooooooooooooooo   XXXXXX",
"XXXXXXXXX   ooo   XXXOOO      OOOOOOOOO   XXXXXX",
"XXXXXXXXX   ooo   XXXOOO      OOOOOOOOO   XXXXXX",
"XXXXXXXXX   ooo   XXXOOO      OOOOOOOOO   XXXXXX",
"XXXXXXXXX   OOO   XXXOOO   XXXOOO   OOO   XXXXXX",
"XXXXXXXXX   OOO   XXXOOO   XXXOOO   OOO   XXXXXX",
"XXXXXXXXX   OOO   XXXOOO   XXXOOO   OOO   XXXXXX",
"XXXXXXXXXXXX   OOOOOO   XXXXXX   XXXOOO   XXXXXX",
"XXXXXXXXXXXX   OOOOOO   XXXXXX   XXXOOO   XXXXXX",
"XXXXXXXXXXXX   OOOOOO   XXXXXX   XXXOOO   XXXXXX",
"XXXXXXXXXXXXXXX      XXXXXXXXXXXXXXX   XXXXXXXXX",
"XXXXXXXXXXXXXXX      XXXXXXXXXXXXXXX   XXXXXXXXX",
"XXXXXXXXXXXXXXX      XXXXXXXXXXXXXXX   XXXXXXXXX",
"XXXXXXXXXXXXXXXXXXXXXXXXXXXXXXXXXXXXXXXXXXXXXXXX",
"XXXXXXXXXXXXXXXXXXXXXXXXXXXXXXXXXXXXXXXXXXXXXXXX",
"XXXXXXXXXXXXXXXXXXXXXXXXXXXXXXXXXXXXXXXXXXXXXXXX"
};
