/* XPM */
static char *key_g1[] = {
/* columns rows colors chars-per-pixel */
"48 48 6 1 ",
"  c #25131A",
". c #4C3941",
"X c #514047",
"o c #C09344",
"O c #FFD569",
"+ c #FFF1CC",
/* pixels */
"XXXXXXXXXXXXXXXXXXXXXXXXXXXXXXXXXXXXXXXXXXXXXXXX",
"XXXXXXXXXXXXXXXXXXXXXXXXXXXXXXXXXXXXXXXXXXXXXXXX",
"XXXXXXXXXXXXXXXXXXXXXXXXXXXXXXXXXXXXXXXXXXXXXXXX",
"XXXXXXXXXXXXXXXXXXXXXXXXXXXXXXXXXXXXXXXXXXXXXXXX",
"XXXXXXXXXXXXXXXXXXXXXXXXXXXXXXXXXXXXXXXXXXXXXXXX",
"XXXXXXXXXXXXXXXXXXXXXXXXXXXXXXXXXXXXXXXXXXXXXXXX",
"XXXXXXXXXXXXXXXXXXXXXXXXXXXXXXXXXXXX...XXXXXXXXX",
"XXXXXXXXXXXXXXXXXXXXXXXXXXXXXXXXXXXX...XXXXXXXXX",
"XXXXXXXXXXXXXXXXXXXXXXXXXXXXXXXXXXXX...XXXXXXXXX",
"XXXXXXXXXXXXXXX...XXXXXXXXXXXXXXXXXXXXXXXXXXXXXX",
"XXXXXXXXXXXXXXX...XXXXXXXXXXXXXXXXXXXXXXXXXXXXXX",
"XXXXXXXXXXXXXXX...XXXXXXXXXXXXXXXXXXXXXXXXXXXXXX",
"XXXXXXXXXXXXXXXXXXXXXXXXXXXXXXXXXXXXXXXXXXXXXXXX",
"XXXXXXXXXXXXXXXXXXXXXXXXXXXXXXXXXXXXXXXXXXXXXXXX",
"XXXXXXXXXXXXXXXXXXXXXXXXXXXXXXXXXXXXXXXXXXXXXXXX",
"XXXXXXXXXXXXXXXXXXXXXXXXXXXXXXXXXXXXXXXXXXXXXXXX",
"XXXXXXXXXXXXXXXXXXXXXXXXXXXXXXXXXXXXXXXXXXXXXXXX",
"XXXXXXXXXXXXXXXXXXXXXXXXXXXXXXXXXXXXXXXXXXXXXXXX",
"XXXXXXXXXXXXXXXXXXXXXXXXXXXXXXXXXXXXXXXXXXXXXXXX",
"XXXXXXXXXXXXXXXXXXXXXXXXXXXXXXXXXXXXXXXXXXXXXXXX",
"XXXXXXXXXXXXXXXXXXXXXXXXXXXXXXXXXXXXXXXXXXXXXXXX",
"XXXXXXXXXXXXXXX      XXXXXX...XXXXXXXXXXXXXXXXXX",
"XXXXXXXXXXXXXXX      XXXXXX...XXXXXXXXXXXXXXXXXX",
"XXXXXXXXXXXXXXX      XXXXXX...XXXXXXXXXXXXXXXXXX",
"XXXXXXXXXXXX   ooo+++   XXXXXXXXXXXXXXXXXXXXXXXX",
"XXXXXXXXXXXX   ooo+++   XXXXXXXXXXXXXXXXXXXXXXXX",
"XXXXXXXXXXXX   ooo+++   XXXXXXXXXXXXXXXXXXXXXXXX",
"XXXXXXXXX   ooo      ooo                  XXXXXX",
"XXXXXXXXX   ooo      ooo                  XXXXXX",
"XXXXXXXXX   ooo      ooo                  XXXXXX",
"XXXXXXXXX   ooo   XXXoooooooooooooooooo   XXXXXX",
"XXXXXXXXX   ooo   XXXoooooooooooooooooo   XXXXXX",
"XXXXXXXXX   ooo   XXXoooooooooooooooooo   XXXXXX",
"XXXXXXXXX   ooo   XXX+++      OOO++++++   XXXXXX",
"XXXXXXXXX   ooo   XXX+++      OOO++++++   XXXXXX",
"XXXXXXXXX   ooo   XXX+++      OOO++++++   XXXXXX",
"XXXXXXXXX   OOO   XXXOOO   XXXOOO   +++   XXXXXX",
"XXXXXXXXX   OOO   XXXOOO   XXXOOO   +++   XXXXXX",
"XXXXXXXXX   OOO   XXXOOO   XXXOOO   +++   XXXXXX",
"XXXXXXXXXXXX   OOOOOO   XXXXXX   XXXOOO   XXXXXX",
"XXXXXXXXXXXX   OOOOOO   XXXXXX   XXXOOO   XXXXXX",
"XXXXXXXXXXXX   OOOOOO   XXXXXX   XXXOOO   XXXXXX",
"XXXXXXXXXXXXXXX      XXXXXXXXXXXXXXX   XXXXXXXXX",
"XXXXXXXXXXXXXXX      XXXXXXXXXXXXXXX   XXXXXXXXX",
"XXXXXXXXXXXXXXX      XXXXXXXXXXXXXXX   XXXXXXXXX",
"XXXXXXXXXXXXXXXXXXXXXXXXXXXXXXXXXXXXXXXXXXXXXXXX",
"XXXXXXXXXXXXXXXXXXXXXXXXXXXXXXXXXXXXXXXXXXXXXXXX",
"XXXXXXXXXXXXXXXXXXXXXXXXXXXXXXXXXXXXXXXXXXXXXXXX"
};
