/* XPM */
static char *key_s4[] = {
/* columns rows colors chars-per-pixel */
"48 48 5 1 ",
"  c #25131A",
". c #4C3941",
"X c #514047",
"o c #90919E",
"O c #ADC1CF",
/* pixels */
"XXXXXXXXXXXXXXXXXXXXXXXXXXXXXXXXXXXXXXXXXXXXXXXX",
"XXXXXXXXXXXXXXXXXXXXXXXXXXXXXXXXXXXXXXXXXXXXXXXX",
"XXXXXXXXXXXXXXXXXXXXXXXXXXXXXXXXXXXXXXXXXXXXXXXX",
"XXXXXXXXXXXXXXXXXXXXXXXXXXXXXXXXXXXXXXXXXXXXXXXX",
"XXXXXXXXXXXXXXXXXXXXXXXXXXXXXXXXXXXXXXXXXXXXXXXX",
"XXXXXXXXXXXXXXXXXXXXXXXXXXXXXXXXXXXXXXXXXXXXXXXX",
"XXXXXXXXXXXXXXXXXXXXXXXXXXXXXXXXXXXX...XXXXXXXXX",
"XXXXXXXXXXXXXXXXXXXXXXXXXXXXXXXXXXXX...XXXXXXXXX",
"XXXXXXXXXXXXXXXXXXXXXXXXXXXXXXXXXXXX...XXXXXXXXX",
"XXXXXXXXXXXXXXX...XXXXXXXXXXXXXXXXXXXXXXXXXXXXXX",
"XXXXXXXXXXXXXXX...XXXXXXXXXXXXXXXXXXXXXXXXXXXXXX",
"XXXXXXXXXXXXXXX...XXXXXXXXXXXXXXXXXXXXXXXXXXXXXX",
"XXXXXXXXXXXXXXXXXXXXXXXXXXXXXX      XXXXXXXXXXXX",
"XXXXXXXXXXXXXXXXXXXXXXXXXXXXXX      XXXXXXXXXXXX",
"XXXXXXXXXXXXXXXXXXXXXXXXXXXXXX      XXXXXXXXXXXX",
"XXXXXXXXXXXXXXXXXXXXXXXXXXX   OOOooo   XXXXXXXXX",
"XXXXXXXXXXXXXXXXXXXXXXXXXXX   OOOooo   XXXXXXXXX",
"XXXXXXXXXXXXXXXXXXXXXXXXXXX   OOOooo   XXXXXXXXX",
"XXXXXXXXX                  ooo      ooo   XXXXXX",
"XXXXXXXXX                  ooo      ooo   XXXXXX",
"XXXXXXXXX                  ooo      ooo   XXXXXX",
"XXXXXXXXX   ooooooooooooooooooXXX   ooo   XXXXXX",
"XXXXXXXXX   ooooooooooooooooooXXX   ooo   XXXXXX",
"XXXXXXXXX   ooooooooooooooooooXXX   ooo   XXXXXX",
"XXXXXXXXX   OOOOOOOOO      OOOXXX   ooo   XXXXXX",
"XXXXXXXXX   OOOOOOOOO      OOOXXX   ooo   XXXXXX",
"XXXXXXXXX   OOOOOOOOO      OOOXXX   ooo   XXXXXX",
"XXXXXXXXX   OOO   OOOXXX   OOOXXX   OOO   XXXXXX",
"XXXXXXXXX   OOO   OOOXXX   OOOXXX   OOO   XXXXXX",
"XXXXXXXXX   OOO   OOOXXX   OOOXXX   OOO   XXXXXX",
"XXXXXXXXX   OOOXXX   XXXXXX   OOOOOO   XXXXXXXXX",
"XXXXXXXXX   OOOXXX   XXXXXX   OOOOOO   XXXXXXXXX",
"XXXXXXXXX   OOOXXX   XXXXXX   OOOOOO   XXXXXXXXX",
"XXXXXXXXXXXX   XXXXXXXXXXXXXXX      XXXXXXXXXXXX",
"XXXXXXXXXXXX   XXXXXXXXXXXXXXX      XXXXXXXXXXXX",
"XXXXXXXXXXXX   XXXXXXXXXXXXXXX      XXXXXXXXXXXX",
"XXXXXXXXXXXXXXXXXXXXXXXXXXXXXXXXXXXXXXXXXXXXXXXX",
"XXXXXXXXXXXXXXXXXXXXXXXXXXXXXXXXXXXXXXXXXXXXXXXX",
"XXXXXXXXXXXXXXXXXXXXXXXXXXXXXXXXXXXXXXXXXXXXXXXX",
"XXXXXXXXXXXXXXXXXXXXXXXXXXXXXXXXXXXXXXXXXXXXXXXX",
"XXXXXXXXXXXXXXXXXXXXXXXXXXXXXXXXXXXXXXXXXXXXXXXX",
"XXXXXXXXXXXXXXXXXXXXXXXXXXXXXXXXXXXXXXXXXXXXXXXX",
"XXXXXXXXXXXXXXXXXXXXXXXXXXXXXXXXXXXXXXXXXXXXXXXX",
"XXXXXXXXXXXXXXXXXXXXXXXXXXXXXXXXXXXXXXXXXXXXXXXX",
"XXXXXXXXXXXXXXXXXXXXXXXXXXXXXXXXXXXXXXXXXXXXXXXX",
"XXXXXXXXXXXXXXXXXXXXXXXXXXXXXXXXXXXXXXXXXXXXXXXX",
"XXXXXXXXXXXXXXXXXXXXXXXXXXXXXXXXXXXXXXXXXXXXXXXX",
"XXXXXXXXXXXXXXXXXXXXXXXXXXXXXXXXXXXXXXXXXXXXXXXX"
};
