/* XPM */
static char *key_g5[] = {
/* columns rows colors chars-per-pixel */
"48 48 6 1 ",
"  c #25131A",
". c #4C3941",
"X c #514047",
"o c #C09344",
"O c #FFD569",
"+ c #FFF1CC",
/* pixels */
"XXXXXXXXXXXXXXXXXXXXXXXXXXXXXXXXXXXXXXXXXXXXXXXX",
"XXXXXXXXXXXXXXXXXXXXXXXXXXXXXXXXXXXXXXXXXXXXXXXX",
"XXXXXXXXXXXXXXXXXXXXXXXXXXXXXXXXXXXXXXXXXXXXXXXX",
"XXXXXXXXXXXXXXXXXXXXXXXXXXXXXXXXXXXXXXXXXXXXXXXX",
"XXXXXXXXXXXXXXXXXXXXXXXXXXXXXXXXXXXXXXXXXXXXXXXX",
"XXXXXXXXXXXXXXXXXXXXXXXXXXXXXXXXXXXXXXXXXXXXXXXX",
"XXXXXXXXXXXXXXXXXXXXXXXXXXXXXXXXXXXX...XXXXXXXXX",
"XXXXXXXXXXXXXXXXXXXXXXXXXXXXXXXXXXXX...XXXXXXXXX",
"XXXXXXXXXXXXXXXXXXXXXXXXXXXXXXXXXXXX...XXXXXXXXX",
"XXXXXXXXXXXXXXX...XXXXXXXXXXXXXXXXXXXXXXXXXXXXXX",
"XXXXXXXXXXXXXXX...XXXXXXXXXXXXXXXXXXXXXXXXXXXXXX",
"XXXXXXXXXXXXXXX...XXXXXXXXXXXXXXXXXXXXXXXXXXXXXX",
"XXXXXXXXXXXXXXXXXXXXXXXXXXXXXXXXXXXXXXXXXXXXXXXX",
"XXXXXXXXXXXXXXXXXXXXXXXXXXXXXXXXXXXXXXXXXXXXXXXX",
"XXXXXXXXXXXXXXXXXXXXXXXXXXXXXXXXXXXXXXXXXXXXXXXX",
"XXXXXXXXXXXXXXXXXXXXXXXXXXX   XXXXXXXXXXXXXXXXXX",
"XXXXXXXXXXXXXXXXXXXXXXXXXXX   XXXXXXXXXXXXXXXXXX",
"XXXXXXXXXXXXXXXXXXXXXXXXXXX   XXXXXXXXXXXXXXXXXX",
"XXXXXXXXXXXXXXXXXXXXXXXX   ooo   XXXXXXXXXXXXXXX",
"XXXXXXXXXXXXXXXXXXXXXXXX   ooo   XXXXXXXXXXXXXXX",
"XXXXXXXXXXXXXXXXXXXXXXXX   ooo   XXXXXXXXXXXXXXX",
"XXXXXXXXXXXX            ooo   ooo   XXXXXXXXXXXX",
"XXXXXXXXXXXX            ooo   ooo   XXXXXXXXXXXX",
"XXXXXXXXXXXX            ooo   ooo   XXXXXXXXXXXX",
"XXXXXXXXXXXX   oooooooooooo   ooo   XXXXXXXXXXXX",
"XXXXXXXXXXXX   oooooooooooo   ooo   XXXXXXXXXXXX",
"XXXXXXXXXXXX   oooooooooooo   ooo   XXXXXXXXXXXX",
"XXXXXXXXXXXX   ++++++   OOO   ooo   XXXXXXXXXXXX",
"XXXXXXXXXXXX   ++++++   OOO   ooo   XXXXXXXXXXXX",
"XXXXXXXXXXXX   ++++++   OOO   ooo   XXXXXXXXXXXX",
"XXXXXXXXXXXX   +++      OOO   OOO   XXXXXXXXXXXX",
"XXXXXXXXXXXX   +++      OOO   OOO   XXXXXXXXXXXX",
"XXXXXXXXXXXX   +++      OOO   OOO   XXXXXXXXXXXX",
"XXXXXXXXXXXX   OOO   XXX   OOO   XXXXXXXXXXXXXXX",
"XXXXXXXXXXXX   OOO   XXX   OOO   XXXXXXXXXXXXXXX",
"XXXXXXXXXXXX   OOO   XXX   OOO   XXXXXXXXXXXXXXX",
"XXXXXXXXXXXXXXX   XXXXXXXXX   XXXXXXXXXXXXXXXXXX",
"XXXXXXXXXXXXXXX   XXXXXXXXX   XXXXXXXXXXXXXXXXXX",
"XXXXXXXXXXXXXXX   XXXXXXXXX   XXXXXXXXXXXXXXXXXX",
"XXXXXXXXXXXXXXXXXXXXXXXXXXXXXXXXXXXXXXXXXXXXXXXX",
"XXXXXXXXXXXXXXXXXXXXXXXXXXXXXXXXXXXXXXXXXXXXXXXX",
"XXXXXXXXXXXXXXXXXXXXXXXXXXXXXXXXXXXXXXXXXXXXXXXX",
"XXXXXXXXXXXXXXXXXXXXXXXXXXXXXXXXXXXXXXXXXXXXXXXX",
"XXXXXXXXXXXXXXXXXXXXXXXXXXXXXXXXXXXXXXXXXXXXXXXX",
"XXXXXXXXXXXXXXXXXXXXXXXXXXXXXXXXXXXXXXXXXXXXXXXX",
"XXXXXXXXXXXXXXXXXXXXXXXXXXXXXXXXXXXXXXXXXXXXXXXX",
"XXXXXXXXXXXXXXXXXXXXXXXXXXXXXXXXXXXXXXXXXXXXXXXX",
"XXXXXXXXXXXXXXXXXXXXXXXXXXXXXXXXXXXXXXXXXXXXXXXX"
};
