/* XPM */
static char *key_s2[] = {
/* columns rows colors chars-per-pixel */
"48 48 5 1 ",
"  c #25131A",
". c #4C3941",
"X c #514047",
"o c #90919E",
"O c #ADC1CF",
/* pixels */
"XXXXXXXXXXXXXXXXXXXXXXXXXXXXXXXXXXXXXXXXXXXXXXXX",
"XXXXXXXXXXXXXXXXXXXXXXXXXXXXXXXXXXXXXXXXXXXXXXXX",
"XXXXXXXXXXXXXXXXXXXXXXXXXXXXXXXXXXXXXXXXXXXXXXXX",
"XXXXXXXXXXXXXXXXXXXXXXXXXXXXXXXXXXXXXXXXXXXXXXXX",
"XXXXXXXXXXXXXXXXXXXXXXXXXXXXXXXXXXXXXXXXXXXXXXXX",
"XXXXXXXXXXXXXXXXXXXXXXXXXXXXXXXXXXXXXXXXXXXXXXXX",
"XXXXXXXXXXXXXXXXXXXXXXXXXXXXXXXXXXXX...XXXXXXXXX",
"XXXXXXXXXXXXXXXXXXXXXXXXXXXXXXXXXXXX...XXXXXXXXX",
"XXXXXXXXXXXXXXXXXXXXXXXXXXXXXXXXXXXX...XXXXXXXXX",
"XXXXXXXXXXXXXXX...XXXXXXXXXXXXXXXXXXXXXXXXXXXXXX",
"XXXXXXXXXXXXXXX...XXXXXXXXXXXXXXXXXXXXXXXXXXXXXX",
"XXXXXXXXXXXXXXX...XXXXXXXXXXXXXXXXXXXXXXXXXXXXXX",
"XXXXXXXXXXXXXXXXXXXXXXXXXXXXXXXXXXXXXXXXXXXXXXXX",
"XXXXXXXXXXXXXXXXXXXXXXXXXXXXXXXXXXXXXXXXXXXXXXXX",
"XXXXXXXXXXXXXXXXXXXXXXXXXXXXXXXXXXXXXXXXXXXXXXXX",
"XXXXXXXXXXXXXXXXXXXXXXXXXXXXXXXXXXXXXXXXXXXXXXXX",
"XXXXXXXXXXXXXXXXXXXXXXXXXXXXXXXXXXXXXXXXXXXXXXXX",
"XXXXXXXXXXXXXXXXXXXXXXXXXXXXXXXXXXXXXXXXXXXXXXXX",
"XXXXXXXXXXXXXXXXXXXXX   XXXXXXXXXXXXXXXXXXXXXXXX",
"XXXXXXXXXXXXXXXXXXXXX   XXXXXXXXXXXXXXXXXXXXXXXX",
"XXXXXXXXXXXXXXXXXXXXX   XXXXXXXXXXXXXXXXXXXXXXXX",
"XXXXXXXXXXXXXXXXXX   ooo   ...XXXXXXXXXXXXXXXXXX",
"XXXXXXXXXXXXXXXXXX   ooo   ...XXXXXXXXXXXXXXXXXX",
"XXXXXXXXXXXXXXXXXX   ooo   ...XXXXXXXXXXXXXXXXXX",
"XXXXXXXXXXXXXXX   ooo   ooo            XXXXXXXXX",
"XXXXXXXXXXXXXXX   ooo   ooo            XXXXXXXXX",
"XXXXXXXXXXXXXXX   ooo   ooo            XXXXXXXXX",
"XXXXXXXXXXXXXXX   ooo   oooooooooooo   XXXXXXXXX",
"XXXXXXXXXXXXXXX   ooo   oooooooooooo   XXXXXXXXX",
"XXXXXXXXXXXXXXX   ooo   oooooooooooo   XXXXXXXXX",
"XXXXXXXXXXXXXXX   ooo   OOO   OOOOOO   XXXXXXXXX",
"XXXXXXXXXXXXXXX   ooo   OOO   OOOOOO   XXXXXXXXX",
"XXXXXXXXXXXXXXX   ooo   OOO   OOOOOO   XXXXXXXXX",
"XXXXXXXXXXXX...   OOO   OOO      OOO   XXXXXXXXX",
"XXXXXXXXXXXX...   OOO   OOO      OOO   XXXXXXXXX",
"XXXXXXXXXXXX...   OOO   OOO      OOO   XXXXXXXXX",
"XXXXXXXXXXXXXXXXXX   OOO      XXXOOO   XXXXXXXXX",
"XXXXXXXXXXXXXXXXXX   OOO      XXXOOO   XXXXXXXXX",
"XXXXXXXXXXXXXXXXXX   OOO      XXXOOO   XXXXXXXXX",
"XXXXXXXXXXXXXXXXXXXXX   XXXXXXXXX   XXXXXXXXXXXX",
"XXXXXXXXXXXXXXXXXXXXX   XXXXXXXXX   XXXXXXXXXXXX",
"XXXXXXXXXXXXXXXXXXXXX   XXXXXXXXX   XXXXXXXXXXXX",
"XXXXXXXXXXXXXXXXXXXXXXXXXXXXXXXXXXXXXXXXXXXXXXXX",
"XXXXXXXXXXXXXXXXXXXXXXXXXXXXXXXXXXXXXXXXXXXXXXXX",
"XXXXXXXXXXXXXXXXXXXXXXXXXXXXXXXXXXXXXXXXXXXXXXXX",
"XXXXXXXXXXXXXXXXXXXXXXXXXXXXXXXXXXXXXXXXXXXXXXXX",
"XXXXXXXXXXXXXXXXXXXXXXXXXXXXXXXXXXXXXXXXXXXXXXXX",
"XXXXXXXXXXXXXXXXXXXXXXXXXXXXXXXXXXXXXXXXXXXXXXXX"
};
