/* XPM */
static char *key_g4[] = {
/* columns rows colors chars-per-pixel */
"48 48 6 1 ",
"  c #25131A",
". c #4C3941",
"X c #514047",
"o c #C09344",
"O c #FFD569",
"+ c #FFF1CC",
/* pixels */
"XXXXXXXXXXXXXXXXXXXXXXXXXXXXXXXXXXXXXXXXXXXXXXXX",
"XXXXXXXXXXXXXXXXXXXXXXXXXXXXXXXXXXXXXXXXXXXXXXXX",
"XXXXXXXXXXXXXXXXXXXXXXXXXXXXXXXXXXXXXXXXXXXXXXXX",
"XXXXXXXXXXXXXXXXXXXXXXXXXXXXXXXXXXXXXXXXXXXXXXXX",
"XXXXXXXXXXXXXXXXXXXXXXXXXXXXXXXXXXXXXXXXXXXXXXXX",
"XXXXXXXXXXXXXXXXXXXXXXXXXXXXXXXXXXXXXXXXXXXXXXXX",
"XXXXXXXXXXXXXXXXXXXXXXXXXXXXXXXXXXXX...XXXXXXXXX",
"XXXXXXXXXXXXXXXXXXXXXXXXXXXXXXXXXXXX...XXXXXXXXX",
"XXXXXXXXXXXXXXXXXXXXXXXXXXXXXXXXXXXX...XXXXXXXXX",
"XXXXXXXXXXXXXXX...XXXXXXXXXXXXXXXXXXXXXXXXXXXXXX",
"XXXXXXXXXXXXXXX...XXXXXXXXXXXXXXXXXXXXXXXXXXXXXX",
"XXXXXXXXXXXXXXX...XXXXXXXXXXXXXXXXXXXXXXXXXXXXXX",
"XXXXXXXXXXXXXXXXXXXXXXXXXXXXXX      XXXXXXXXXXXX",
"XXXXXXXXXXXXXXXXXXXXXXXXXXXXXX      XXXXXXXXXXXX",
"XXXXXXXXXXXXXXXXXXXXXXXXXXXXXX      XXXXXXXXXXXX",
"XXXXXXXXXXXXXXXXXXXXXXXXXXX   +++ooo   XXXXXXXXX",
"XXXXXXXXXXXXXXXXXXXXXXXXXXX   +++ooo   XXXXXXXXX",
"XXXXXXXXXXXXXXXXXXXXXXXXXXX   +++ooo   XXXXXXXXX",
"XXXXXXXXX                  ooo      ooo   XXXXXX",
"XXXXXXXXX                  ooo      ooo   XXXXXX",
"XXXXXXXXX                  ooo      ooo   XXXXXX",
"XXXXXXXXX   ooooooooooooooooooXXX   ooo   XXXXXX",
"XXXXXXXXX   ooooooooooooooooooXXX   ooo   XXXXXX",
"XXXXXXXXX   ooooooooooooooooooXXX   ooo   XXXXXX",
"XXXXXXXXX   ++++++OOO      +++XXX   ooo   XXXXXX",
"XXXXXXXXX   ++++++OOO      +++XXX   ooo   XXXXXX",
"XXXXXXXXX   ++++++OOO      +++XXX   ooo   XXXXXX",
"XXXXXXXXX   +++   OOOXXX   OOOXXX   OOO   XXXXXX",
"XXXXXXXXX   +++   OOOXXX   OOOXXX   OOO   XXXXXX",
"XXXXXXXXX   +++   OOOXXX   OOOXXX   OOO   XXXXXX",
"XXXXXXXXX   OOOXXX   XXXXXX   OOOOOO   XXXXXXXXX",
"XXXXXXXXX   OOOXXX   XXXXXX   OOOOOO   XXXXXXXXX",
"XXXXXXXXX   OOOXXX   XXXXXX   OOOOOO   XXXXXXXXX",
"XXXXXXXXXXXX   XXXXXXXXXXXXXXX      XXXXXXXXXXXX",
"XXXXXXXXXXXX   XXXXXXXXXXXXXXX      XXXXXXXXXXXX",
"XXXXXXXXXXXX   XXXXXXXXXXXXXXX      XXXXXXXXXXXX",
"XXXXXXXXXXXXXXXXXXXXXXXXXXXXXXXXXXXXXXXXXXXXXXXX",
"XXXXXXXXXXXXXXXXXXXXXXXXXXXXXXXXXXXXXXXXXXXXXXXX",
"XXXXXXXXXXXXXXXXXXXXXXXXXXXXXXXXXXXXXXXXXXXXXXXX",
"XXXXXXXXXXXXXXXXXXXXXXXXXXXXXXXXXXXXXXXXXXXXXXXX",
"XXXXXXXXXXXXXXXXXXXXXXXXXXXXXXXXXXXXXXXXXXXXXXXX",
"XXXXXXXXXXXXXXXXXXXXXXXXXXXXXXXXXXXXXXXXXXXXXXXX",
"XXXXXXXXXXXXXXXXXXXXXXXXXXXXXXXXXXXXXXXXXXXXXXXX",
"XXXXXXXXXXXXXXXXXXXXXXXXXXXXXXXXXXXXXXXXXXXXXXXX",
"XXXXXXXXXXXXXXXXXXXXXXXXXXXXXXXXXXXXXXXXXXXXXXXX",
"XXXXXXXXXXXXXXXXXXXXXXXXXXXXXXXXXXXXXXXXXXXXXXXX",
"XXXXXXXXXXXXXXXXXXXXXXXXXXXXXXXXXXXXXXXXXXXXXXXX",
"XXXXXXXXXXXXXXXXXXXXXXXXXXXXXXXXXXXXXXXXXXXXXXXX"
};
